<svg width="18" height="18" viewBox="0 0 18 18" fill="none" xmlns="http://www.w3.org/2000/svg">
<path opacity="0.3" fill-rule="evenodd" clip-rule="evenodd" d="M4.875 12H5.625C6.24632 12 6.75 12.5037 6.75 13.125V14.625C6.75 15.2463 6.24632 15.75 5.625 15.75H4.875C4.25368 15.75 3.75 15.2463 3.75 14.625V13.125C3.75 12.5037 4.25368 12 4.875 12ZM12.375 12H13.125C13.7463 12 14.25 12.5037 14.25 13.125V14.625C14.25 15.2463 13.7463 15.75 13.125 15.75H12.375C11.7537 15.75 11.25 15.2463 11.25 14.625V13.125C11.25 12.5037 11.7537 12 12.375 12Z" fill="#C871AD"/>
<path fill-rule="evenodd" clip-rule="evenodd" d="M3.75 3H14.25C15.0784 3 15.75 3.67157 15.75 4.5V12.75C15.75 13.5784 15.0784 14.25 14.25 14.25H3.75C2.92157 14.25 2.25 13.5784 2.25 12.75V4.5C2.25 3.67157 2.92157 3 3.75 3ZM11.625 11.25C13.0747 11.25 14.25 10.0747 14.25 8.625C14.25 7.17525 13.0747 6 11.625 6C10.1753 6 9 7.17525 9 8.625C9 10.0747 10.1753 11.25 11.625 11.25ZM11.625 9.75C12.2463 9.75 12.75 9.24632 12.75 8.625C12.75 8.00368 12.2463 7.5 11.625 7.5C11.0037 7.5 10.5 8.00368 10.5 8.625C10.5 9.24632 11.0037 9.75 11.625 9.75ZM5.25 6C5.66421 6 6 6.33579 6 6.75V8.25C6 8.66421 5.66421 9 5.25 9C4.83579 9 4.5 8.66421 4.5 8.25V6.75C4.5 6.33579 4.83579 6 5.25 6Z" fill="#C871AD"/>
</svg>
