<svg width="18" height="18" viewBox="0 0 18 18" fill="none" xmlns="http://www.w3.org/2000/svg">
<path opacity="0.3" d="M4.5 8.25C4.08579 8.25 3.75 8.58579 3.75 9C3.75 9.41421 4.08579 9.75 4.5 9.75H13.5C13.9142 9.75 14.25 9.41421 14.25 9C14.25 8.58579 13.9142 8.25 13.5 8.25H4.5Z" fill="black" fill-opacity="0.7"/>
<path d="M8.46967 12.9697C8.17677 13.2626 8.17677 13.7374 8.46967 14.0303C8.76256 14.3232 9.23744 14.3232 9.53033 14.0303L14.0303 9.53033C14.3143 9.2464 14.3242 8.78921 14.0529 8.49321L9.92786 3.99321C9.64797 3.68787 9.17354 3.66724 8.86821 3.94713C8.56287 4.22703 8.54224 4.70145 8.82213 5.00679L12.4619 8.97744L8.46967 12.9697Z" fill="black" fill-opacity="0.7"/>
</svg>
