<svg width="86" height="100" viewBox="0 0 86 100" fill="none" xmlns="http://www.w3.org/2000/svg">
<path d="M2.02609 61.238V74H6.74209C9.11809 74 10.7021 72.524 10.7021 70.472C10.7021 68.96 9.76609 67.79 8.41609 67.43C9.51409 67.034 10.3061 66.026 10.3061 64.676C10.3061 62.678 8.86609 61.238 6.41809 61.238H2.02609ZM4.16809 66.638V63.074H6.07609C7.39009 63.074 8.14609 63.776 8.14609 64.856C8.14609 65.918 7.39009 66.638 6.13009 66.638H4.16809ZM4.16809 72.164V68.456H6.43609C7.76809 68.456 8.50609 69.23 8.50609 70.328C8.50609 71.462 7.66009 72.164 6.36409 72.164H4.16809ZM12.1518 71.624C12.1518 73.01 13.2858 74.27 15.1218 74.27C16.5438 74.27 17.4078 73.55 17.8218 72.884C17.8218 73.586 17.8938 73.946 17.9118 74H19.8558C19.8378 73.91 19.7478 73.388 19.7478 72.596V68.24C19.7478 66.494 18.7218 64.964 16.0218 64.964C13.8618 64.964 12.4938 66.314 12.3318 67.826L14.2398 68.258C14.3298 67.376 14.9418 66.674 16.0398 66.674C17.1918 66.674 17.6958 67.268 17.6958 68.006C17.6958 68.312 17.5518 68.564 17.0478 68.636L14.7978 68.978C13.3038 69.194 12.1518 70.058 12.1518 71.624ZM15.5178 72.632C14.6898 72.632 14.2398 72.092 14.2398 71.498C14.2398 70.778 14.7618 70.418 15.4098 70.31L17.6958 69.968V70.364C17.6958 72.074 16.6878 72.632 15.5178 72.632ZM24.3599 68.942C24.3599 67.79 24.9899 66.872 26.1779 66.872C27.4919 66.872 27.9779 67.736 27.9779 68.816V74H30.0659V68.456C30.0659 66.53 29.0399 64.982 26.8979 64.982C25.9259 64.982 24.8819 65.396 24.3059 66.404V65.234H22.2719V74H24.3599V68.942ZM40.8158 65.234H38.0438L34.6778 68.78V60.968H32.6078V74H34.6778V71.552L35.7578 70.418L38.3318 74H40.8878L37.2158 68.942L40.8158 65.234ZM46.3899 69.662V67.808H41.3139V69.662H46.3899ZM50.6392 74V60.968H48.5512V74H50.6392ZM54.7904 68.654C54.8624 67.718 55.6184 66.71 56.9324 66.71C58.3724 66.71 59.0564 67.628 59.0924 68.654H54.7904ZM59.3264 70.94C59.0384 71.804 58.3904 72.47 57.1304 72.47C55.8344 72.47 54.7904 71.516 54.7364 70.184H61.1444C61.1624 70.148 61.1984 69.86 61.1984 69.518C61.1984 66.746 59.6144 64.964 56.9144 64.964C54.7004 64.964 52.6484 66.8 52.6484 69.572C52.6484 72.542 54.7544 74.27 57.1304 74.27C59.2364 74.27 60.6224 73.028 61.0904 71.498L59.3264 70.94ZM70.938 65.234H68.742L66.474 71.498L64.152 65.234H61.848L65.412 74H67.5L70.938 65.234ZM73.6693 68.654C73.7413 67.718 74.4973 66.71 75.8113 66.71C77.2513 66.71 77.9353 67.628 77.9713 68.654H73.6693ZM78.2053 70.94C77.9173 71.804 77.2693 72.47 76.0093 72.47C74.7133 72.47 73.6693 71.516 73.6153 70.184H80.0233C80.0413 70.148 80.0773 69.86 80.0773 69.518C80.0773 66.746 78.4933 64.964 75.7933 64.964C73.5793 64.964 71.5273 66.8 71.5273 69.572C71.5273 72.542 73.6333 74.27 76.0093 74.27C78.1153 74.27 79.5013 73.028 79.9693 71.498L78.2053 70.94ZM84.1607 74V60.968H82.0727V74H84.1607ZM18.5791 86.226C18.2911 84.804 17.1211 82.968 14.1151 82.968C11.7391 82.968 9.77713 84.732 9.77713 86.874C9.77713 88.782 11.0731 90.06 13.0171 90.456L14.8171 90.834C15.9151 91.068 16.5271 91.734 16.5271 92.562C16.5271 93.552 15.7351 94.326 14.2051 94.326C12.3691 94.326 11.4151 93.102 11.2891 91.77L9.27313 92.346C9.47113 94.182 10.9651 96.27 14.2051 96.27C17.1211 96.27 18.7231 94.38 18.7231 92.4C18.7231 90.6 17.5171 89.178 15.2671 88.728L13.4311 88.35C12.4411 88.134 11.9371 87.522 11.9371 86.712C11.9371 85.74 12.8371 84.876 14.1331 84.876C15.8431 84.876 16.5091 86.046 16.6351 86.838L18.5791 86.226ZM22.1215 90.654C22.1935 89.718 22.9495 88.71 24.2635 88.71C25.7035 88.71 26.3875 89.628 26.4235 90.654H22.1215ZM26.6575 92.94C26.3695 93.804 25.7215 94.47 24.4615 94.47C23.1655 94.47 22.1215 93.516 22.0675 92.184H28.4755C28.4935 92.148 28.5295 91.86 28.5295 91.518C28.5295 88.746 26.9455 86.964 24.2455 86.964C22.0315 86.964 19.9795 88.8 19.9795 91.572C19.9795 94.542 22.0855 96.27 24.4615 96.27C26.5675 96.27 27.9535 95.028 28.4215 93.498L26.6575 92.94ZM34.3408 88.89C35.6728 88.89 36.2668 89.754 36.4648 90.528L38.3368 89.844C37.9768 88.44 36.6808 86.964 34.3228 86.964C31.8028 86.964 29.8408 88.908 29.8408 91.608C29.8408 94.272 31.8028 96.27 34.3768 96.27C36.6808 96.27 37.9948 94.776 38.4088 93.408L36.5728 92.742C36.3748 93.408 35.7448 94.362 34.3768 94.362C33.0628 94.362 31.9288 93.372 31.9288 91.608C31.9288 89.844 33.0628 88.89 34.3408 88.89ZM45.846 95.028C45.846 95.388 45.882 95.802 45.918 96H47.916C47.88 95.676 47.826 95.118 47.826 94.398V87.234H45.738V92.418C45.738 93.57 45.108 94.38 43.902 94.38C42.642 94.38 42.138 93.462 42.138 92.382V87.234H40.05V92.76C40.05 94.704 41.274 96.252 43.362 96.252C44.388 96.252 45.414 95.82 45.846 95.028ZM55.6587 87.18C55.5687 87.162 55.3527 87.126 55.1007 87.126C53.9487 87.126 52.9767 87.684 52.5627 88.638V87.234H50.5287V96H52.6167V91.824C52.6167 90.186 53.3547 89.25 54.9747 89.25C55.1907 89.25 55.4247 89.268 55.6587 89.304V87.18ZM59.4718 96V87.234H57.4018V96H59.4718ZM57.0778 84.156C57.0778 84.912 57.6898 85.506 58.4278 85.506C59.1838 85.506 59.7958 84.912 59.7958 84.156C59.7958 83.4 59.1838 82.788 58.4278 82.788C57.6898 82.788 57.0778 83.4 57.0778 84.156ZM64.8114 84.552H62.9214V85.866C62.9214 86.64 62.5074 87.234 61.5714 87.234H61.1214V89.088H62.7414V93.498C62.7414 95.136 63.7494 96.108 65.3694 96.108C66.1254 96.108 66.5214 95.964 66.6474 95.91V94.182C66.5574 94.2 66.2154 94.254 65.9274 94.254C65.1534 94.254 64.8114 93.93 64.8114 93.156V89.088H66.6294V87.234H64.8114V84.552ZM71.5794 99.546L77.1594 87.234H74.9454L72.5874 92.778L70.0674 87.234H67.7094L71.4534 94.956L69.3474 99.546H71.5794Z" fill="black"/>
<g clip-path="url(#clip0)">
<path d="M57.0301 -9.76537e-05H28.9667H28.9501C27.5667 -9.76537e-05 26.4501 1.11657 26.4501 2.4999V12.9332H26.4334C26.3834 24.1999 32.6001 34.5832 42.5501 39.8832L42.5334 39.8666C42.6501 39.9166 42.7834 39.9499 42.9167 39.9499C43.0501 39.9499 43.1834 39.9166 43.3001 39.8499V39.8332C53.2501 34.5166 59.4501 24.1499 59.4167 12.8666V2.41657V2.3999C59.4167 1.01657 58.3001 -0.100098 56.9167 -0.100098L57.0301 -9.76537e-05ZM52.8301 13.2416L40.9967 24.4082H40.9801C40.3134 25.0249 39.2801 25.0082 38.6467 24.3582L34.6801 20.3582C34.0134 19.7082 33.9967 18.6582 34.6467 17.9916C35.2801 17.3249 36.3301 17.3082 36.9967 17.9582C36.9967 17.9582 37.0134 17.9749 37.0301 17.9916L39.8301 20.8249L50.4801 10.7749V10.7582C51.1467 10.1249 52.1967 10.1416 52.8301 10.8082C53.4467 11.4749 53.4301 12.5249 52.7634 13.1582L52.8301 13.2416Z" fill="black"/>
</g>
<defs>
<clipPath id="clip0">
<rect width="40" height="40" fill="white" transform="translate(23)"/>
</clipPath>
</defs>
</svg>
