<svg width="241" height="102" viewBox="0 0 241 102" fill="none" xmlns="http://www.w3.org/2000/svg">
<path fill-rule="evenodd" clip-rule="evenodd" d="M190 82C190 79.7909 191.791 78 194 78H237C239.209 78 241 79.7909 241 82V98C241 100.209 239.209 102 237 102H194C191.791 102 190 100.209 190 98V82Z" fill="#5D5FFE"/>
<path fill-rule="evenodd" clip-rule="evenodd" d="M155 82C155 79.7909 156.791 78 159 78H182C184.209 78 186 79.7909 186 82V98C186 100.209 184.209 102 182 102H159C156.791 102 155 100.209 155 98V82Z" fill="#AB61B2"/>
<path fill-rule="evenodd" clip-rule="evenodd" d="M115 82C115 79.7909 116.791 78 119 78H147C149.209 78 151 79.7909 151 82V98C151 100.209 149.209 102 147 102H119C116.791 102 115 100.209 115 98V82Z" fill="#B43074"/>
<path fill-rule="evenodd" clip-rule="evenodd" d="M71 82C71 79.7909 72.7909 78 75 78H107C109.209 78 111 79.7909 111 82V98C111 100.209 109.209 102 107 102H75C72.7909 102 71 100.209 71 98V82Z" fill="#DF3A46"/>
<path fill-rule="evenodd" clip-rule="evenodd" d="M0 82C0 79.7909 1.79086 78 4 78H63C65.2091 78 67 79.7909 67 82V98C67 100.209 65.2091 102 63 102H4C1.79086 102 0 100.209 0 98V82Z" fill="#FF7C64"/>
<path d="M24.2108 89.224C24.1748 89.092 24.1508 88.936 24.1508 88.792C24.1508 88.06 24.5588 87.496 25.3868 87.496C26.1668 87.496 26.5628 88 26.5628 88.564C26.5628 89.104 26.2988 89.512 25.6388 89.908L24.3548 90.676C22.9628 91.516 22.5308 92.632 22.5188 94H28.2788V92.572H24.5468C24.6668 92.272 24.9188 92.056 25.2188 91.864L26.7188 90.952C27.6788 90.364 28.2308 89.548 28.2308 88.54C28.2308 87.184 27.1628 86.032 25.4228 86.032C23.6108 86.032 22.5788 87.268 22.5788 88.636C22.5788 88.828 22.6148 89.068 22.6388 89.176L24.2108 89.224ZM28.8938 92.332H32.5778V94H34.2098V92.332H35.4938V90.916H34.2098V86.212H32.1698L28.8938 90.604V92.332ZM32.5778 90.916H30.3578L32.5778 87.94V90.916ZM37.351 88.048C37.351 87.556 37.699 87.22 38.143 87.22C38.599 87.22 38.935 87.556 38.935 88.048C38.935 88.54 38.599 88.888 38.143 88.888C37.699 88.888 37.351 88.552 37.351 88.048ZM36.151 88.048C36.151 89.14 37.051 90.004 38.143 90.004C39.223 90.004 40.147 89.164 40.147 88.048C40.147 86.944 39.223 86.08 38.143 86.08C37.063 86.08 36.151 86.944 36.151 88.048ZM42.595 92.176C42.595 91.684 42.943 91.348 43.387 91.348C43.843 91.348 44.179 91.684 44.179 92.176C44.179 92.668 43.843 93.016 43.387 93.016C42.943 93.016 42.595 92.68 42.595 92.176ZM41.395 92.176C41.395 93.268 42.295 94.132 43.387 94.132C44.467 94.132 45.391 93.292 45.391 92.176C45.391 91.072 44.467 90.208 43.387 90.208C42.307 90.208 41.395 91.072 41.395 92.176ZM38.719 94L44.215 86.212H42.823L37.327 94H38.719Z" fill="white"/>
<path d="M165.888 89.404C165.168 89.392 164.748 88.936 164.748 88.384C164.748 87.868 165.168 87.4 165.888 87.4C166.62 87.4 167.04 87.868 167.04 88.384C167.04 88.936 166.62 89.392 165.888 89.404ZM165.888 92.812C165.036 92.812 164.58 92.284 164.58 91.732C164.58 91.168 165.012 90.628 165.888 90.628C166.764 90.628 167.208 91.168 167.208 91.732C167.208 92.284 166.752 92.812 165.888 92.812ZM165.888 94.18C167.664 94.18 168.828 93.244 168.828 91.9C168.828 91.06 168.276 90.304 167.46 90.004C168.24 89.716 168.672 88.948 168.672 88.264C168.672 86.956 167.508 86.032 165.888 86.032C164.268 86.032 163.104 86.956 163.104 88.264C163.104 88.96 163.548 89.716 164.328 90.004C163.5 90.316 162.948 91.06 162.948 91.9C162.948 93.244 164.112 94.18 165.888 94.18ZM171.005 88.048C171.005 87.556 171.353 87.22 171.797 87.22C172.253 87.22 172.589 87.556 172.589 88.048C172.589 88.54 172.253 88.888 171.797 88.888C171.353 88.888 171.005 88.552 171.005 88.048ZM169.805 88.048C169.805 89.14 170.705 90.004 171.797 90.004C172.877 90.004 173.801 89.164 173.801 88.048C173.801 86.944 172.877 86.08 171.797 86.08C170.717 86.08 169.805 86.944 169.805 88.048ZM176.249 92.176C176.249 91.684 176.597 91.348 177.041 91.348C177.497 91.348 177.833 91.684 177.833 92.176C177.833 92.668 177.497 93.016 177.041 93.016C176.597 93.016 176.249 92.68 176.249 92.176ZM175.049 92.176C175.049 93.268 175.949 94.132 177.041 94.132C178.121 94.132 179.045 93.292 179.045 92.176C179.045 91.072 178.121 90.208 177.041 90.208C175.961 90.208 175.049 91.072 175.049 92.176ZM172.373 94L177.869 86.212H176.477L170.981 94H172.373Z" fill="white"/>
<path d="M126.197 94V86.212H124.769C124.613 87.028 123.821 87.664 122.681 87.676V88.792H124.553V94H126.197ZM129.343 90.112C129.343 89.296 129.463 88.6 129.763 88.132C130.003 87.748 130.375 87.496 130.939 87.496C131.515 87.496 131.863 87.748 132.103 88.132C132.415 88.6 132.535 89.296 132.535 90.112C132.535 90.928 132.415 91.624 132.103 92.092C131.863 92.476 131.515 92.728 130.939 92.728C130.375 92.728 130.003 92.476 129.763 92.092C129.463 91.624 129.343 90.928 129.343 90.112ZM127.687 90.112C127.687 91.108 127.843 92.08 128.371 92.884C128.887 93.652 129.727 94.192 130.939 94.192C132.151 94.192 132.991 93.652 133.495 92.884C134.023 92.08 134.191 91.108 134.191 90.112C134.191 89.116 134.023 88.144 133.495 87.34C132.991 86.572 132.151 86.032 130.939 86.032C129.727 86.032 128.887 86.572 128.371 87.34C127.843 88.144 127.687 89.116 127.687 90.112ZM136.177 88.048C136.177 87.556 136.525 87.22 136.969 87.22C137.425 87.22 137.761 87.556 137.761 88.048C137.761 88.54 137.425 88.888 136.969 88.888C136.525 88.888 136.177 88.552 136.177 88.048ZM134.977 88.048C134.977 89.14 135.877 90.004 136.969 90.004C138.049 90.004 138.973 89.164 138.973 88.048C138.973 86.944 138.049 86.08 136.969 86.08C135.889 86.08 134.977 86.944 134.977 88.048ZM141.421 92.176C141.421 91.684 141.769 91.348 142.213 91.348C142.669 91.348 143.005 91.684 143.005 92.176C143.005 92.668 142.669 93.016 142.213 93.016C141.769 93.016 141.421 92.68 141.421 92.176ZM140.221 92.176C140.221 93.268 141.121 94.132 142.213 94.132C143.293 94.132 144.217 93.292 144.217 92.176C144.217 91.072 143.293 90.208 142.213 90.208C141.133 90.208 140.221 91.072 140.221 92.176ZM137.545 94L143.041 86.212H141.649L136.153 94H137.545Z" fill="white"/>
<path d="M84.0482 94V86.212H82.6202C82.4642 87.028 81.6722 87.664 80.5322 87.676V88.792H82.4042V94H84.0482ZM87.158 89.224C87.122 89.092 87.098 88.936 87.098 88.792C87.098 88.06 87.506 87.496 88.334 87.496C89.114 87.496 89.51 88 89.51 88.564C89.51 89.104 89.246 89.512 88.586 89.908L87.302 90.676C85.91 91.516 85.478 92.632 85.466 94H91.226V92.572H87.494C87.614 92.272 87.866 92.056 88.166 91.864L89.666 90.952C90.626 90.364 91.178 89.548 91.178 88.54C91.178 87.184 90.11 86.032 88.37 86.032C86.558 86.032 85.526 87.268 85.526 88.636C85.526 88.828 85.562 89.068 85.586 89.176L87.158 89.224ZM93.3257 88.048C93.3257 87.556 93.6737 87.22 94.1177 87.22C94.5737 87.22 94.9097 87.556 94.9097 88.048C94.9097 88.54 94.5737 88.888 94.1177 88.888C93.6737 88.888 93.3257 88.552 93.3257 88.048ZM92.1257 88.048C92.1257 89.14 93.0257 90.004 94.1177 90.004C95.1977 90.004 96.1217 89.164 96.1217 88.048C96.1217 86.944 95.1977 86.08 94.1177 86.08C93.0377 86.08 92.1257 86.944 92.1257 88.048ZM98.5697 92.176C98.5697 91.684 98.9177 91.348 99.3617 91.348C99.8177 91.348 100.154 91.684 100.154 92.176C100.154 92.668 99.8177 93.016 99.3617 93.016C98.9177 93.016 98.5697 92.68 98.5697 92.176ZM97.3697 92.176C97.3697 93.268 98.2697 94.132 99.3617 94.132C100.442 94.132 101.366 93.292 101.366 92.176C101.366 91.072 100.442 90.208 99.3617 90.208C98.2817 90.208 97.3697 91.072 97.3697 92.176ZM94.6937 94L100.19 86.212H98.7977L93.3017 94H94.6937Z" fill="white"/>
<path d="M206.855 90.544C207.023 90.484 207.227 90.424 207.563 90.424C208.307 90.424 208.835 90.844 208.835 91.576C208.835 92.224 208.343 92.752 207.515 92.752C206.699 92.752 206.135 92.176 206.099 91.384L204.503 91.696C204.599 93.004 205.703 94.18 207.515 94.18C209.399 94.18 210.503 92.944 210.503 91.6C210.503 90.172 209.423 89.272 208.247 89.224L210.263 87.544V86.212H204.755V87.64H208.163L206.123 89.392L206.855 90.544ZM211.221 91.816C211.317 93.04 212.493 94.192 214.185 94.192C216.057 94.192 217.173 92.932 217.173 91.48C217.173 89.812 216.069 88.876 214.509 88.876C213.993 88.876 213.441 89.044 213.105 89.356L213.489 87.64H216.753V86.212H212.361L211.437 90.208C211.605 90.256 212.793 90.664 212.949 90.724C213.201 90.436 213.621 90.196 214.149 90.196C214.869 90.196 215.529 90.616 215.529 91.504C215.529 92.284 214.929 92.776 214.185 92.776C213.357 92.776 212.805 92.188 212.769 91.468L211.221 91.816ZM219.199 88.048C219.199 87.556 219.547 87.22 219.991 87.22C220.447 87.22 220.783 87.556 220.783 88.048C220.783 88.54 220.447 88.888 219.991 88.888C219.547 88.888 219.199 88.552 219.199 88.048ZM217.999 88.048C217.999 89.14 218.899 90.004 219.991 90.004C221.071 90.004 221.995 89.164 221.995 88.048C221.995 86.944 221.071 86.08 219.991 86.08C218.911 86.08 217.999 86.944 217.999 88.048ZM224.443 92.176C224.443 91.684 224.791 91.348 225.235 91.348C225.691 91.348 226.027 91.684 226.027 92.176C226.027 92.668 225.691 93.016 225.235 93.016C224.791 93.016 224.443 92.68 224.443 92.176ZM223.243 92.176C223.243 93.268 224.143 94.132 225.235 94.132C226.315 94.132 227.239 93.292 227.239 92.176C227.239 91.072 226.315 90.208 225.235 90.208C224.155 90.208 223.243 91.072 223.243 92.176ZM220.567 94L226.063 86.212H224.671L219.175 94H220.567Z" fill="white"/>
<path fill-rule="evenodd" clip-rule="evenodd" d="M103 30C103 28.8954 103.895 28 105 28H109C110.105 28 111 28.8954 111 30V34C111 35.1046 110.105 36 109 36H105C103.895 36 103 35.1046 103 34V30Z" fill="#5D5FFE"/>
<path d="M121.116 35.076C121.448 35.076 121.734 35.038 121.974 34.962C122.214 34.886 122.41 34.78 122.562 34.644C122.718 34.504 122.832 34.34 122.904 34.152C122.976 33.96 123.012 33.75 123.012 33.522C123.012 33.078 122.854 32.728 122.538 32.472C122.222 32.212 121.748 32.082 121.116 32.082H119.256V35.076H121.116ZM119.256 28.32V31.254H120.792C121.12 31.254 121.404 31.218 121.644 31.146C121.888 31.074 122.088 30.974 122.244 30.846C122.404 30.718 122.522 30.564 122.598 30.384C122.674 30.2 122.712 30 122.712 29.784C122.712 29.276 122.56 28.906 122.256 28.674C121.952 28.438 121.48 28.32 120.84 28.32H119.256ZM120.84 27.402C121.368 27.402 121.822 27.454 122.202 27.558C122.586 27.662 122.9 27.81 123.144 28.002C123.392 28.194 123.574 28.43 123.69 28.71C123.806 28.986 123.864 29.298 123.864 29.646C123.864 29.858 123.83 30.062 123.762 30.258C123.698 30.45 123.6 30.63 123.468 30.798C123.336 30.966 123.168 31.118 122.964 31.254C122.764 31.386 122.528 31.494 122.256 31.578C122.888 31.698 123.362 31.924 123.678 32.256C123.998 32.584 124.158 33.016 124.158 33.552C124.158 33.916 124.09 34.248 123.954 34.548C123.822 34.848 123.626 35.106 123.366 35.322C123.11 35.538 122.794 35.706 122.418 35.826C122.042 35.942 121.614 36 121.134 36H118.098V27.402H120.84ZM126.489 31.14C126.681 30.724 126.917 30.4 127.197 30.168C127.477 29.932 127.819 29.814 128.223 29.814C128.351 29.814 128.473 29.828 128.589 29.856C128.709 29.884 128.815 29.928 128.907 29.988L128.829 30.786C128.805 30.886 128.745 30.936 128.649 30.936C128.593 30.936 128.511 30.924 128.403 30.9C128.295 30.876 128.173 30.864 128.037 30.864C127.845 30.864 127.673 30.892 127.521 30.948C127.373 31.004 127.239 31.088 127.119 31.2C127.003 31.308 126.897 31.444 126.801 31.608C126.709 31.768 126.625 31.952 126.549 32.16V36H125.475V29.922H126.087C126.203 29.922 126.283 29.944 126.327 29.988C126.371 30.032 126.401 30.108 126.417 30.216L126.489 31.14ZM133.046 33.264C132.554 33.28 132.134 33.32 131.786 33.384C131.442 33.444 131.16 33.524 130.94 33.624C130.724 33.724 130.566 33.842 130.466 33.978C130.37 34.114 130.322 34.266 130.322 34.434C130.322 34.594 130.348 34.732 130.4 34.848C130.452 34.964 130.522 35.06 130.61 35.136C130.702 35.208 130.808 35.262 130.928 35.298C131.052 35.33 131.184 35.346 131.324 35.346C131.512 35.346 131.684 35.328 131.84 35.292C131.996 35.252 132.142 35.196 132.278 35.124C132.418 35.052 132.55 34.966 132.674 34.866C132.802 34.766 132.926 34.652 133.046 34.524V33.264ZM129.596 30.78C129.932 30.456 130.294 30.214 130.682 30.054C131.07 29.894 131.5 29.814 131.972 29.814C132.312 29.814 132.614 29.87 132.878 29.982C133.142 30.094 133.364 30.25 133.544 30.45C133.724 30.65 133.86 30.892 133.952 31.176C134.044 31.46 134.09 31.772 134.09 32.112V36H133.616C133.512 36 133.432 35.984 133.376 35.952C133.32 35.916 133.276 35.848 133.244 35.748L133.124 35.172C132.964 35.32 132.808 35.452 132.656 35.568C132.504 35.68 132.344 35.776 132.176 35.856C132.008 35.932 131.828 35.99 131.636 36.03C131.448 36.074 131.238 36.096 131.006 36.096C130.77 36.096 130.548 36.064 130.34 36C130.132 35.932 129.95 35.832 129.794 35.7C129.642 35.568 129.52 35.402 129.428 35.202C129.34 34.998 129.296 34.758 129.296 34.482C129.296 34.242 129.362 34.012 129.494 33.792C129.626 33.568 129.84 33.37 130.136 33.198C130.432 33.026 130.818 32.886 131.294 32.778C131.77 32.666 132.354 32.602 133.046 32.586V32.112C133.046 31.64 132.944 31.284 132.74 31.044C132.536 30.8 132.238 30.678 131.846 30.678C131.582 30.678 131.36 30.712 131.18 30.78C131.004 30.844 130.85 30.918 130.718 31.002C130.59 31.082 130.478 31.156 130.382 31.224C130.29 31.288 130.198 31.32 130.106 31.32C130.034 31.32 129.972 31.302 129.92 31.266C129.868 31.226 129.824 31.178 129.788 31.122L129.596 30.78ZM136.725 30.804C136.857 30.656 136.997 30.522 137.145 30.402C137.293 30.282 137.449 30.18 137.613 30.096C137.781 30.008 137.957 29.942 138.141 29.898C138.329 29.85 138.531 29.826 138.747 29.826C139.079 29.826 139.371 29.882 139.623 29.994C139.879 30.102 140.091 30.258 140.259 30.462C140.431 30.662 140.561 30.904 140.649 31.188C140.737 31.472 140.781 31.786 140.781 32.13V36H139.707V32.13C139.707 31.67 139.601 31.314 139.389 31.062C139.181 30.806 138.863 30.678 138.435 30.678C138.119 30.678 137.823 30.754 137.547 30.906C137.275 31.058 137.023 31.264 136.791 31.524V36H135.717V29.922H136.359C136.511 29.922 136.605 29.996 136.641 30.144L136.725 30.804ZM146.369 31.368C146.169 31.1 145.953 30.914 145.721 30.81C145.489 30.702 145.229 30.648 144.941 30.648C144.377 30.648 143.943 30.85 143.639 31.254C143.335 31.658 143.183 32.234 143.183 32.982C143.183 33.378 143.217 33.718 143.285 34.002C143.353 34.282 143.453 34.514 143.585 34.698C143.717 34.878 143.879 35.01 144.071 35.094C144.263 35.178 144.481 35.22 144.725 35.22C145.077 35.22 145.383 35.14 145.643 34.98C145.907 34.82 146.149 34.594 146.369 34.302V31.368ZM147.437 27.162V36H146.801C146.649 36 146.553 35.926 146.513 35.778L146.417 35.04C146.157 35.352 145.861 35.604 145.529 35.796C145.197 35.988 144.813 36.084 144.377 36.084C144.029 36.084 143.713 36.018 143.429 35.886C143.145 35.75 142.903 35.552 142.703 35.292C142.503 35.032 142.349 34.708 142.241 34.32C142.133 33.932 142.079 33.486 142.079 32.982C142.079 32.534 142.139 32.118 142.259 31.734C142.379 31.346 142.551 31.01 142.775 30.726C142.999 30.442 143.273 30.22 143.597 30.06C143.925 29.896 144.293 29.814 144.701 29.814C145.073 29.814 145.391 29.878 145.655 30.006C145.923 30.13 146.161 30.304 146.369 30.528V27.162H147.437ZM159.898 31.704C159.898 32.348 159.796 32.934 159.592 33.462C159.388 33.99 159.1 34.442 158.728 34.818C158.356 35.194 157.908 35.486 157.384 35.694C156.864 35.898 156.288 36 155.656 36H152.446V27.402H155.656C156.288 27.402 156.864 27.506 157.384 27.714C157.908 27.918 158.356 28.21 158.728 28.59C159.1 28.966 159.388 29.418 159.592 29.946C159.796 30.474 159.898 31.06 159.898 31.704ZM158.704 31.704C158.704 31.176 158.632 30.704 158.488 30.288C158.344 29.872 158.14 29.52 157.876 29.232C157.612 28.944 157.292 28.724 156.916 28.572C156.54 28.42 156.12 28.344 155.656 28.344H153.61V35.058H155.656C156.12 35.058 156.54 34.982 156.916 34.83C157.292 34.678 157.612 34.46 157.876 34.176C158.14 33.888 158.344 33.536 158.488 33.12C158.632 32.704 158.704 32.232 158.704 31.704ZM165.309 32.298C165.309 32.05 165.273 31.824 165.201 31.62C165.133 31.412 165.031 31.234 164.895 31.086C164.763 30.934 164.601 30.818 164.409 30.738C164.217 30.654 163.999 30.612 163.755 30.612C163.243 30.612 162.837 30.762 162.537 31.062C162.241 31.358 162.057 31.77 161.985 32.298H165.309ZM166.173 35.148C166.041 35.308 165.883 35.448 165.699 35.568C165.515 35.684 165.317 35.78 165.105 35.856C164.897 35.932 164.681 35.988 164.457 36.024C164.233 36.064 164.011 36.084 163.791 36.084C163.371 36.084 162.983 36.014 162.627 35.874C162.275 35.73 161.969 35.522 161.709 35.25C161.453 34.974 161.253 34.634 161.109 34.23C160.965 33.826 160.893 33.362 160.893 32.838C160.893 32.414 160.957 32.018 161.085 31.65C161.217 31.282 161.405 30.964 161.649 30.696C161.893 30.424 162.191 30.212 162.543 30.06C162.895 29.904 163.291 29.826 163.731 29.826C164.095 29.826 164.431 29.888 164.739 30.012C165.051 30.132 165.319 30.308 165.543 30.54C165.771 30.768 165.949 31.052 166.077 31.392C166.205 31.728 166.269 32.112 166.269 32.544C166.269 32.712 166.251 32.824 166.215 32.88C166.179 32.936 166.111 32.964 166.011 32.964H161.949C161.961 33.348 162.013 33.682 162.105 33.966C162.201 34.25 162.333 34.488 162.501 34.68C162.669 34.868 162.869 35.01 163.101 35.106C163.333 35.198 163.593 35.244 163.881 35.244C164.149 35.244 164.379 35.214 164.571 35.154C164.767 35.09 164.935 35.022 165.075 34.95C165.215 34.878 165.331 34.812 165.423 34.752C165.519 34.688 165.601 34.656 165.669 34.656C165.757 34.656 165.825 34.69 165.873 34.758L166.173 35.148ZM170.874 33.264C170.382 33.28 169.962 33.32 169.614 33.384C169.27 33.444 168.988 33.524 168.768 33.624C168.552 33.724 168.394 33.842 168.294 33.978C168.198 34.114 168.15 34.266 168.15 34.434C168.15 34.594 168.176 34.732 168.228 34.848C168.28 34.964 168.35 35.06 168.438 35.136C168.53 35.208 168.636 35.262 168.756 35.298C168.88 35.33 169.012 35.346 169.152 35.346C169.34 35.346 169.512 35.328 169.668 35.292C169.824 35.252 169.97 35.196 170.106 35.124C170.246 35.052 170.378 34.966 170.502 34.866C170.63 34.766 170.754 34.652 170.874 34.524V33.264ZM167.424 30.78C167.76 30.456 168.122 30.214 168.51 30.054C168.898 29.894 169.328 29.814 169.8 29.814C170.14 29.814 170.442 29.87 170.706 29.982C170.97 30.094 171.192 30.25 171.372 30.45C171.552 30.65 171.688 30.892 171.78 31.176C171.872 31.46 171.918 31.772 171.918 32.112V36H171.444C171.34 36 171.26 35.984 171.204 35.952C171.148 35.916 171.104 35.848 171.072 35.748L170.952 35.172C170.792 35.32 170.636 35.452 170.484 35.568C170.332 35.68 170.172 35.776 170.004 35.856C169.836 35.932 169.656 35.99 169.464 36.03C169.276 36.074 169.066 36.096 168.834 36.096C168.598 36.096 168.376 36.064 168.168 36C167.96 35.932 167.778 35.832 167.622 35.7C167.47 35.568 167.348 35.402 167.256 35.202C167.168 34.998 167.124 34.758 167.124 34.482C167.124 34.242 167.19 34.012 167.322 33.792C167.454 33.568 167.668 33.37 167.964 33.198C168.26 33.026 168.646 32.886 169.122 32.778C169.598 32.666 170.182 32.602 170.874 32.586V32.112C170.874 31.64 170.772 31.284 170.568 31.044C170.364 30.8 170.066 30.678 169.674 30.678C169.41 30.678 169.188 30.712 169.008 30.78C168.832 30.844 168.678 30.918 168.546 31.002C168.418 31.082 168.306 31.156 168.21 31.224C168.118 31.288 168.026 31.32 167.934 31.32C167.862 31.32 167.8 31.302 167.748 31.266C167.696 31.226 167.652 31.178 167.616 31.122L167.424 30.78ZM174.649 27.162V36H173.581V27.162H174.649ZM179.921 30.924C179.873 31.012 179.799 31.056 179.699 31.056C179.639 31.056 179.571 31.034 179.495 30.99C179.419 30.946 179.325 30.898 179.213 30.846C179.105 30.79 178.975 30.74 178.823 30.696C178.671 30.648 178.491 30.624 178.283 30.624C178.103 30.624 177.941 30.648 177.797 30.696C177.653 30.74 177.529 30.802 177.425 30.882C177.325 30.962 177.247 31.056 177.191 31.164C177.139 31.268 177.113 31.382 177.113 31.506C177.113 31.662 177.157 31.792 177.245 31.896C177.337 32 177.457 32.09 177.605 32.166C177.753 32.242 177.921 32.31 178.109 32.37C178.297 32.426 178.489 32.488 178.685 32.556C178.885 32.62 179.079 32.692 179.267 32.772C179.455 32.852 179.623 32.952 179.771 33.072C179.919 33.192 180.037 33.34 180.125 33.516C180.217 33.688 180.263 33.896 180.263 34.14C180.263 34.42 180.213 34.68 180.113 34.92C180.013 35.156 179.865 35.362 179.669 35.538C179.473 35.71 179.233 35.846 178.949 35.946C178.665 36.046 178.337 36.096 177.965 36.096C177.541 36.096 177.157 36.028 176.813 35.892C176.469 35.752 176.177 35.574 175.937 35.358L176.189 34.95C176.221 34.898 176.259 34.858 176.303 34.83C176.347 34.802 176.403 34.788 176.471 34.788C176.543 34.788 176.619 34.816 176.699 34.872C176.779 34.928 176.875 34.99 176.987 35.058C177.103 35.126 177.243 35.188 177.407 35.244C177.571 35.3 177.775 35.328 178.019 35.328C178.227 35.328 178.409 35.302 178.565 35.25C178.721 35.194 178.851 35.12 178.955 35.028C179.059 34.936 179.135 34.83 179.183 34.71C179.235 34.59 179.261 34.462 179.261 34.326C179.261 34.158 179.215 34.02 179.123 33.912C179.035 33.8 178.917 33.706 178.769 33.63C178.621 33.55 178.451 33.482 178.259 33.426C178.071 33.366 177.877 33.304 177.677 33.24C177.481 33.176 177.287 33.104 177.095 33.024C176.907 32.94 176.739 32.836 176.591 32.712C176.443 32.588 176.323 32.436 176.231 32.256C176.143 32.072 176.099 31.85 176.099 31.59C176.099 31.358 176.147 31.136 176.243 30.924C176.339 30.708 176.479 30.52 176.663 30.36C176.847 30.196 177.073 30.066 177.341 29.97C177.609 29.874 177.915 29.826 178.259 29.826C178.659 29.826 179.017 29.89 179.333 30.018C179.653 30.142 179.929 30.314 180.161 30.534L179.921 30.924Z" fill="#333333"/>
<path fill-rule="evenodd" clip-rule="evenodd" d="M103 6C103 4.89543 103.895 4 105 4H109C110.105 4 111 4.89543 111 6V10C111 11.1046 110.105 12 109 12H105C103.895 12 103 11.1046 103 10V6Z" fill="#AB61B2"/>
<path d="M122.664 8.808L121.314 5.31C121.274 5.206 121.232 5.086 121.188 4.95C121.144 4.81 121.102 4.662 121.062 4.506C120.978 4.83 120.892 5.1 120.804 5.316L119.454 8.808H122.664ZM125.088 12H124.188C124.084 12 124 11.974 123.936 11.922C123.872 11.87 123.824 11.804 123.792 11.724L122.988 9.648H119.13L118.326 11.724C118.302 11.796 118.256 11.86 118.188 11.916C118.12 11.972 118.036 12 117.936 12H117.036L120.474 3.402H121.65L125.088 12ZM126.094 12V6.834L125.422 6.756C125.338 6.736 125.268 6.706 125.212 6.666C125.16 6.622 125.134 6.56 125.134 6.48V6.042H126.094V5.544C126.094 5.196 126.142 4.888 126.238 4.62C126.338 4.348 126.478 4.12 126.658 3.936C126.842 3.748 127.062 3.606 127.318 3.51C127.574 3.414 127.862 3.366 128.182 3.366C128.454 3.366 128.704 3.406 128.932 3.486L128.908 4.026C128.9 4.122 128.846 4.174 128.746 4.182C128.65 4.19 128.52 4.194 128.356 4.194C128.172 4.194 128.004 4.218 127.852 4.266C127.704 4.31 127.576 4.386 127.468 4.494C127.36 4.602 127.276 4.746 127.216 4.926C127.16 5.102 127.132 5.32 127.132 5.58V6.042H129.874V5.718C129.874 5.382 129.926 5.064 130.03 4.764C130.134 4.46 130.29 4.196 130.498 3.972C130.706 3.748 130.966 3.57 131.278 3.438C131.59 3.306 131.954 3.24 132.37 3.24C132.674 3.24 132.968 3.252 133.252 3.276C133.54 3.3 133.818 3.314 134.086 3.318H134.818V12H133.75V4.068C133.534 4.06 133.316 4.05 133.096 4.038C132.88 4.026 132.692 4.02 132.532 4.02C132.012 4.02 131.612 4.17 131.332 4.47C131.052 4.766 130.912 5.182 130.912 5.718V6.042H132.664V6.816H130.948V12H129.874V6.816H127.168V12H126.094ZM137.677 5.922V12H136.609V5.922H137.677ZM137.905 4.014C137.905 4.118 137.883 4.216 137.839 4.308C137.799 4.396 137.743 4.476 137.671 4.548C137.603 4.616 137.521 4.67 137.425 4.71C137.333 4.75 137.235 4.77 137.131 4.77C137.027 4.77 136.929 4.75 136.837 4.71C136.749 4.67 136.671 4.616 136.603 4.548C136.535 4.476 136.481 4.396 136.441 4.308C136.401 4.216 136.381 4.118 136.381 4.014C136.381 3.91 136.401 3.812 136.441 3.72C136.481 3.624 136.535 3.542 136.603 3.474C136.671 3.402 136.749 3.346 136.837 3.306C136.929 3.266 137.027 3.246 137.131 3.246C137.235 3.246 137.333 3.266 137.425 3.306C137.521 3.346 137.603 3.402 137.671 3.474C137.743 3.542 137.799 3.624 137.839 3.72C137.883 3.812 137.905 3.91 137.905 4.014ZM142.726 9.264C142.234 9.28 141.814 9.32 141.466 9.384C141.122 9.444 140.84 9.524 140.62 9.624C140.404 9.724 140.246 9.842 140.146 9.978C140.05 10.114 140.002 10.266 140.002 10.434C140.002 10.594 140.028 10.732 140.08 10.848C140.132 10.964 140.202 11.06 140.29 11.136C140.382 11.208 140.488 11.262 140.608 11.298C140.732 11.33 140.864 11.346 141.004 11.346C141.192 11.346 141.364 11.328 141.52 11.292C141.676 11.252 141.822 11.196 141.958 11.124C142.098 11.052 142.23 10.966 142.354 10.866C142.482 10.766 142.606 10.652 142.726 10.524V9.264ZM139.276 6.78C139.612 6.456 139.974 6.214 140.362 6.054C140.75 5.894 141.18 5.814 141.652 5.814C141.992 5.814 142.294 5.87 142.558 5.982C142.822 6.094 143.044 6.25 143.224 6.45C143.404 6.65 143.54 6.892 143.632 7.176C143.724 7.46 143.77 7.772 143.77 8.112V12H143.296C143.192 12 143.112 11.984 143.056 11.952C143 11.916 142.956 11.848 142.924 11.748L142.804 11.172C142.644 11.32 142.488 11.452 142.336 11.568C142.184 11.68 142.024 11.776 141.856 11.856C141.688 11.932 141.508 11.99 141.316 12.03C141.128 12.074 140.918 12.096 140.686 12.096C140.45 12.096 140.228 12.064 140.02 12C139.812 11.932 139.63 11.832 139.474 11.7C139.322 11.568 139.2 11.402 139.108 11.202C139.02 10.998 138.976 10.758 138.976 10.482C138.976 10.242 139.042 10.012 139.174 9.792C139.306 9.568 139.52 9.37 139.816 9.198C140.112 9.026 140.498 8.886 140.974 8.778C141.45 8.666 142.034 8.602 142.726 8.586V8.112C142.726 7.64 142.624 7.284 142.42 7.044C142.216 6.8 141.918 6.678 141.526 6.678C141.262 6.678 141.04 6.712 140.86 6.78C140.684 6.844 140.53 6.918 140.398 7.002C140.27 7.082 140.158 7.156 140.062 7.224C139.97 7.288 139.878 7.32 139.786 7.32C139.714 7.32 139.652 7.302 139.6 7.266C139.548 7.226 139.504 7.178 139.468 7.122L139.276 6.78ZM147.181 12.096C146.701 12.096 146.331 11.962 146.071 11.694C145.815 11.426 145.687 11.04 145.687 10.536V6.816H144.955C144.891 6.816 144.837 6.798 144.793 6.762C144.749 6.722 144.727 6.662 144.727 6.582V6.156L145.723 6.03L145.969 4.152C145.981 4.092 146.007 4.044 146.047 4.008C146.091 3.968 146.147 3.948 146.215 3.948H146.755V6.042H148.513V6.816H146.755V10.464C146.755 10.72 146.817 10.91 146.941 11.034C147.065 11.158 147.225 11.22 147.421 11.22C147.533 11.22 147.629 11.206 147.709 11.178C147.793 11.146 147.865 11.112 147.925 11.076C147.985 11.04 148.035 11.008 148.075 10.98C148.119 10.948 148.157 10.932 148.189 10.932C148.245 10.932 148.295 10.966 148.339 11.034L148.651 11.544C148.467 11.716 148.245 11.852 147.985 11.952C147.725 12.048 147.457 12.096 147.181 12.096ZM153.648 8.298C153.648 8.05 153.612 7.824 153.54 7.62C153.472 7.412 153.37 7.234 153.234 7.086C153.102 6.934 152.94 6.818 152.748 6.738C152.556 6.654 152.338 6.612 152.094 6.612C151.582 6.612 151.176 6.762 150.876 7.062C150.58 7.358 150.396 7.77 150.324 8.298H153.648ZM154.512 11.148C154.38 11.308 154.222 11.448 154.038 11.568C153.854 11.684 153.656 11.78 153.444 11.856C153.236 11.932 153.02 11.988 152.796 12.024C152.572 12.064 152.35 12.084 152.13 12.084C151.71 12.084 151.322 12.014 150.966 11.874C150.614 11.73 150.308 11.522 150.048 11.25C149.792 10.974 149.592 10.634 149.448 10.23C149.304 9.826 149.232 9.362 149.232 8.838C149.232 8.414 149.296 8.018 149.424 7.65C149.556 7.282 149.744 6.964 149.988 6.696C150.232 6.424 150.53 6.212 150.882 6.06C151.234 5.904 151.63 5.826 152.07 5.826C152.434 5.826 152.77 5.888 153.078 6.012C153.39 6.132 153.658 6.308 153.882 6.54C154.11 6.768 154.288 7.052 154.416 7.392C154.544 7.728 154.608 8.112 154.608 8.544C154.608 8.712 154.59 8.824 154.554 8.88C154.518 8.936 154.45 8.964 154.35 8.964H150.288C150.3 9.348 150.352 9.682 150.444 9.966C150.54 10.25 150.672 10.488 150.84 10.68C151.008 10.868 151.208 11.01 151.44 11.106C151.672 11.198 151.932 11.244 152.22 11.244C152.488 11.244 152.718 11.214 152.91 11.154C153.106 11.09 153.274 11.022 153.414 10.95C153.554 10.878 153.67 10.812 153.762 10.752C153.858 10.688 153.94 10.656 154.008 10.656C154.096 10.656 154.164 10.69 154.212 10.758L154.512 11.148ZM164.121 11.022V12H159.243V3.402H160.401V11.022H164.121ZM166.283 5.922V12H165.215V5.922H166.283ZM166.511 4.014C166.511 4.118 166.489 4.216 166.445 4.308C166.405 4.396 166.349 4.476 166.277 4.548C166.209 4.616 166.127 4.67 166.031 4.71C165.939 4.75 165.841 4.77 165.737 4.77C165.633 4.77 165.535 4.75 165.443 4.71C165.355 4.67 165.277 4.616 165.209 4.548C165.141 4.476 165.087 4.396 165.047 4.308C165.007 4.216 164.987 4.118 164.987 4.014C164.987 3.91 165.007 3.812 165.047 3.72C165.087 3.624 165.141 3.542 165.209 3.474C165.277 3.402 165.355 3.346 165.443 3.306C165.535 3.266 165.633 3.246 165.737 3.246C165.841 3.246 165.939 3.266 166.031 3.306C166.127 3.346 166.209 3.402 166.277 3.474C166.349 3.542 166.405 3.624 166.445 3.72C166.489 3.812 166.511 3.91 166.511 4.014ZM169.045 6.804C169.177 6.656 169.317 6.522 169.465 6.402C169.613 6.282 169.769 6.18 169.933 6.096C170.101 6.008 170.277 5.942 170.461 5.898C170.649 5.85 170.851 5.826 171.067 5.826C171.399 5.826 171.691 5.882 171.943 5.994C172.199 6.102 172.411 6.258 172.579 6.462C172.751 6.662 172.881 6.904 172.969 7.188C173.057 7.472 173.101 7.786 173.101 8.13V12H172.027V8.13C172.027 7.67 171.921 7.314 171.709 7.062C171.501 6.806 171.183 6.678 170.755 6.678C170.439 6.678 170.143 6.754 169.867 6.906C169.595 7.058 169.343 7.264 169.111 7.524V12H168.037V5.922H168.679C168.831 5.922 168.925 5.996 168.961 6.144L169.045 6.804ZM175.803 3.162V8.364H176.079C176.159 8.364 176.225 8.354 176.277 8.334C176.333 8.31 176.391 8.264 176.451 8.196L178.371 6.138C178.427 6.07 178.485 6.018 178.545 5.982C178.609 5.942 178.693 5.922 178.797 5.922H179.763L177.525 8.304C177.417 8.44 177.301 8.546 177.177 8.622C177.249 8.67 177.313 8.726 177.369 8.79C177.429 8.85 177.485 8.92 177.537 9L179.913 12H178.959C178.867 12 178.787 11.986 178.719 11.958C178.655 11.926 178.599 11.87 178.551 11.79L176.553 9.3C176.493 9.216 176.433 9.162 176.373 9.138C176.317 9.11 176.229 9.096 176.109 9.096H175.803V12H174.729V3.162H175.803ZM184.363 6.924C184.315 7.012 184.241 7.056 184.141 7.056C184.081 7.056 184.013 7.034 183.937 6.99C183.861 6.946 183.767 6.898 183.655 6.846C183.547 6.79 183.417 6.74 183.265 6.696C183.113 6.648 182.933 6.624 182.725 6.624C182.545 6.624 182.383 6.648 182.239 6.696C182.095 6.74 181.971 6.802 181.867 6.882C181.767 6.962 181.689 7.056 181.633 7.164C181.581 7.268 181.555 7.382 181.555 7.506C181.555 7.662 181.599 7.792 181.687 7.896C181.779 8 181.899 8.09 182.047 8.166C182.195 8.242 182.363 8.31 182.551 8.37C182.739 8.426 182.931 8.488 183.127 8.556C183.327 8.62 183.521 8.692 183.709 8.772C183.897 8.852 184.065 8.952 184.213 9.072C184.361 9.192 184.479 9.34 184.567 9.516C184.659 9.688 184.705 9.896 184.705 10.14C184.705 10.42 184.655 10.68 184.555 10.92C184.455 11.156 184.307 11.362 184.111 11.538C183.915 11.71 183.675 11.846 183.391 11.946C183.107 12.046 182.779 12.096 182.407 12.096C181.983 12.096 181.599 12.028 181.255 11.892C180.911 11.752 180.619 11.574 180.379 11.358L180.631 10.95C180.663 10.898 180.701 10.858 180.745 10.83C180.789 10.802 180.845 10.788 180.913 10.788C180.985 10.788 181.061 10.816 181.141 10.872C181.221 10.928 181.317 10.99 181.429 11.058C181.545 11.126 181.685 11.188 181.849 11.244C182.013 11.3 182.217 11.328 182.461 11.328C182.669 11.328 182.851 11.302 183.007 11.25C183.163 11.194 183.293 11.12 183.397 11.028C183.501 10.936 183.577 10.83 183.625 10.71C183.677 10.59 183.703 10.462 183.703 10.326C183.703 10.158 183.657 10.02 183.565 9.912C183.477 9.8 183.359 9.706 183.211 9.63C183.063 9.55 182.893 9.482 182.701 9.426C182.513 9.366 182.319 9.304 182.119 9.24C181.923 9.176 181.729 9.104 181.537 9.024C181.349 8.94 181.181 8.836 181.033 8.712C180.885 8.588 180.765 8.436 180.673 8.256C180.585 8.072 180.541 7.85 180.541 7.59C180.541 7.358 180.589 7.136 180.685 6.924C180.781 6.708 180.921 6.52 181.105 6.36C181.289 6.196 181.515 6.066 181.783 5.97C182.051 5.874 182.357 5.826 182.701 5.826C183.101 5.826 183.459 5.89 183.775 6.018C184.095 6.142 184.371 6.314 184.603 6.534L184.363 6.924Z" fill="#333333"/>
<path fill-rule="evenodd" clip-rule="evenodd" d="M1 53C1 51.8954 1.89543 51 3 51H7C8.10457 51 9 51.8954 9 53V57C9 58.1046 8.10457 59 7 59H3C1.89543 59 1 58.1046 1 57V53Z" fill="#B43074"/>
<path d="M21.636 54.86C21.968 54.86 22.26 54.816 22.512 54.728C22.768 54.64 22.982 54.518 23.154 54.362C23.33 54.202 23.462 54.012 23.55 53.792C23.638 53.572 23.682 53.33 23.682 53.066C23.682 52.518 23.512 52.09 23.172 51.782C22.836 51.474 22.324 51.32 21.636 51.32H20.256V54.86H21.636ZM21.636 50.402C22.18 50.402 22.652 50.466 23.052 50.594C23.456 50.718 23.79 50.896 24.054 51.128C24.318 51.36 24.514 51.64 24.642 51.968C24.774 52.296 24.84 52.662 24.84 53.066C24.84 53.466 24.77 53.832 24.63 54.164C24.49 54.496 24.284 54.782 24.012 55.022C23.744 55.262 23.41 55.45 23.01 55.586C22.614 55.718 22.156 55.784 21.636 55.784H20.256V59H19.098V50.402H21.636ZM29.1595 56.264C28.6675 56.28 28.2475 56.32 27.8995 56.384C27.5555 56.444 27.2735 56.524 27.0535 56.624C26.8375 56.724 26.6795 56.842 26.5795 56.978C26.4835 57.114 26.4355 57.266 26.4355 57.434C26.4355 57.594 26.4615 57.732 26.5135 57.848C26.5655 57.964 26.6355 58.06 26.7235 58.136C26.8155 58.208 26.9215 58.262 27.0415 58.298C27.1655 58.33 27.2975 58.346 27.4375 58.346C27.6255 58.346 27.7975 58.328 27.9535 58.292C28.1095 58.252 28.2555 58.196 28.3915 58.124C28.5315 58.052 28.6635 57.966 28.7875 57.866C28.9155 57.766 29.0395 57.652 29.1595 57.524V56.264ZM25.7095 53.78C26.0455 53.456 26.4075 53.214 26.7955 53.054C27.1835 52.894 27.6135 52.814 28.0855 52.814C28.4255 52.814 28.7275 52.87 28.9915 52.982C29.2555 53.094 29.4775 53.25 29.6575 53.45C29.8375 53.65 29.9735 53.892 30.0655 54.176C30.1575 54.46 30.2035 54.772 30.2035 55.112V59H29.7295C29.6255 59 29.5455 58.984 29.4895 58.952C29.4335 58.916 29.3895 58.848 29.3575 58.748L29.2375 58.172C29.0775 58.32 28.9215 58.452 28.7695 58.568C28.6175 58.68 28.4575 58.776 28.2895 58.856C28.1215 58.932 27.9415 58.99 27.7495 59.03C27.5615 59.074 27.3515 59.096 27.1195 59.096C26.8835 59.096 26.6615 59.064 26.4535 59C26.2455 58.932 26.0635 58.832 25.9075 58.7C25.7555 58.568 25.6335 58.402 25.5415 58.202C25.4535 57.998 25.4095 57.758 25.4095 57.482C25.4095 57.242 25.4755 57.012 25.6075 56.792C25.7395 56.568 25.9535 56.37 26.2495 56.198C26.5455 56.026 26.9315 55.886 27.4075 55.778C27.8835 55.666 28.4675 55.602 29.1595 55.586V55.112C29.1595 54.64 29.0575 54.284 28.8535 54.044C28.6495 53.8 28.3515 53.678 27.9595 53.678C27.6955 53.678 27.4735 53.712 27.2935 53.78C27.1175 53.844 26.9635 53.918 26.8315 54.002C26.7035 54.082 26.5915 54.156 26.4955 54.224C26.4035 54.288 26.3115 54.32 26.2195 54.32C26.1475 54.32 26.0855 54.302 26.0335 54.266C25.9815 54.226 25.9375 54.178 25.9015 54.122L25.7095 53.78ZM33.6143 59.096C33.1343 59.096 32.7643 58.962 32.5043 58.694C32.2483 58.426 32.1203 58.04 32.1203 57.536V53.816H31.3883C31.3243 53.816 31.2703 53.798 31.2263 53.762C31.1823 53.722 31.1603 53.662 31.1603 53.582V53.156L32.1563 53.03L32.4023 51.152C32.4143 51.092 32.4403 51.044 32.4803 51.008C32.5243 50.968 32.5803 50.948 32.6483 50.948H33.1883V53.042H34.9463V53.816H33.1883V57.464C33.1883 57.72 33.2503 57.91 33.3743 58.034C33.4983 58.158 33.6583 58.22 33.8543 58.22C33.9663 58.22 34.0623 58.206 34.1423 58.178C34.2263 58.146 34.2983 58.112 34.3583 58.076C34.4183 58.04 34.4683 58.008 34.5083 57.98C34.5523 57.948 34.5903 57.932 34.6223 57.932C34.6783 57.932 34.7283 57.966 34.7723 58.034L35.0843 58.544C34.9003 58.716 34.6783 58.852 34.4183 58.952C34.1583 59.048 33.8903 59.096 33.6143 59.096ZM37.0631 54.14C37.2551 53.724 37.4911 53.4 37.7711 53.168C38.0511 52.932 38.3931 52.814 38.7971 52.814C38.9251 52.814 39.0471 52.828 39.1631 52.856C39.2831 52.884 39.3891 52.928 39.4811 52.988L39.4031 53.786C39.3791 53.886 39.3191 53.936 39.2231 53.936C39.1671 53.936 39.0851 53.924 38.9771 53.9C38.8691 53.876 38.7471 53.864 38.6111 53.864C38.4191 53.864 38.2471 53.892 38.0951 53.948C37.9471 54.004 37.8131 54.088 37.6931 54.2C37.5771 54.308 37.4711 54.444 37.3751 54.608C37.2831 54.768 37.1991 54.952 37.1231 55.16V59H36.0491V52.922H36.6611C36.7771 52.922 36.8571 52.944 36.9011 52.988C36.9451 53.032 36.9751 53.108 36.9911 53.216L37.0631 54.14ZM44.2421 55.298C44.2421 55.05 44.2061 54.824 44.1341 54.62C44.0661 54.412 43.9641 54.234 43.8281 54.086C43.6961 53.934 43.5341 53.818 43.3421 53.738C43.1501 53.654 42.9321 53.612 42.6881 53.612C42.1761 53.612 41.7701 53.762 41.4701 54.062C41.1741 54.358 40.9901 54.77 40.9181 55.298H44.2421ZM45.1061 58.148C44.9741 58.308 44.8161 58.448 44.6321 58.568C44.4481 58.684 44.2501 58.78 44.0381 58.856C43.8301 58.932 43.6141 58.988 43.3901 59.024C43.1661 59.064 42.9441 59.084 42.7241 59.084C42.3041 59.084 41.9161 59.014 41.5601 58.874C41.2081 58.73 40.9021 58.522 40.6421 58.25C40.3861 57.974 40.1861 57.634 40.0421 57.23C39.8981 56.826 39.8261 56.362 39.8261 55.838C39.8261 55.414 39.8901 55.018 40.0181 54.65C40.1501 54.282 40.3381 53.964 40.5821 53.696C40.8261 53.424 41.1241 53.212 41.4761 53.06C41.8281 52.904 42.2241 52.826 42.6641 52.826C43.0281 52.826 43.3641 52.888 43.6721 53.012C43.9841 53.132 44.2521 53.308 44.4761 53.54C44.7041 53.768 44.8821 54.052 45.0101 54.392C45.1381 54.728 45.2021 55.112 45.2021 55.544C45.2021 55.712 45.1841 55.824 45.1481 55.88C45.1121 55.936 45.0441 55.964 44.9441 55.964H40.8821C40.8941 56.348 40.9461 56.682 41.0381 56.966C41.1341 57.25 41.2661 57.488 41.4341 57.68C41.6021 57.868 41.8021 58.01 42.0341 58.106C42.2661 58.198 42.5261 58.244 42.8141 58.244C43.0821 58.244 43.3121 58.214 43.5041 58.154C43.7001 58.09 43.8681 58.022 44.0081 57.95C44.1481 57.878 44.2641 57.812 44.3561 57.752C44.4521 57.688 44.5341 57.656 44.6021 57.656C44.6901 57.656 44.7581 57.69 44.8061 57.758L45.1061 58.148ZM49.076 52.826C49.52 52.826 49.92 52.9 50.276 53.048C50.632 53.196 50.936 53.406 51.188 53.678C51.44 53.95 51.632 54.28 51.764 54.668C51.9 55.052 51.968 55.482 51.968 55.958C51.968 56.438 51.9 56.87 51.764 57.254C51.632 57.638 51.44 57.966 51.188 58.238C50.936 58.51 50.632 58.72 50.276 58.868C49.92 59.012 49.52 59.084 49.076 59.084C48.628 59.084 48.224 59.012 47.864 58.868C47.508 58.72 47.204 58.51 46.952 58.238C46.7 57.966 46.506 57.638 46.37 57.254C46.238 56.87 46.172 56.438 46.172 55.958C46.172 55.482 46.238 55.052 46.37 54.668C46.506 54.28 46.7 53.95 46.952 53.678C47.204 53.406 47.508 53.196 47.864 53.048C48.224 52.9 48.628 52.826 49.076 52.826ZM49.076 58.25C49.676 58.25 50.124 58.05 50.42 57.65C50.716 57.246 50.864 56.684 50.864 55.964C50.864 55.24 50.716 54.676 50.42 54.272C50.124 53.868 49.676 53.666 49.076 53.666C48.772 53.666 48.506 53.718 48.278 53.822C48.054 53.926 47.866 54.076 47.714 54.272C47.566 54.468 47.454 54.71 47.378 54.998C47.306 55.282 47.27 55.604 47.27 55.964C47.27 56.684 47.418 57.246 47.714 57.65C48.014 58.05 48.468 58.25 49.076 58.25ZM54.3306 53.804C54.4626 53.656 54.6026 53.522 54.7506 53.402C54.8986 53.282 55.0546 53.18 55.2186 53.096C55.3866 53.008 55.5626 52.942 55.7466 52.898C55.9346 52.85 56.1366 52.826 56.3526 52.826C56.6846 52.826 56.9766 52.882 57.2286 52.994C57.4846 53.102 57.6966 53.258 57.8646 53.462C58.0366 53.662 58.1666 53.904 58.2546 54.188C58.3426 54.472 58.3866 54.786 58.3866 55.13V59H57.3126V55.13C57.3126 54.67 57.2066 54.314 56.9946 54.062C56.7866 53.806 56.4686 53.678 56.0406 53.678C55.7246 53.678 55.4286 53.754 55.1526 53.906C54.8806 54.058 54.6286 54.264 54.3966 54.524V59H53.3226V52.922H53.9646C54.1166 52.922 54.2106 52.996 54.2466 53.144L54.3306 53.804Z" fill="#333333"/>
<path fill-rule="evenodd" clip-rule="evenodd" d="M0 29C0 27.8954 0.895431 27 2 27H6C7.10457 27 8 27.8954 8 29V33C8 34.1046 7.10457 35 6 35H2C0.895431 35 0 34.1046 0 33V29Z" fill="#DF3A46"/>
<path d="M28.044 27.402V36H27.024V29.682C27.024 29.598 27.026 29.508 27.03 29.412C27.038 29.316 27.046 29.218 27.054 29.118L24.102 34.494C24.01 34.674 23.87 34.764 23.682 34.764H23.514C23.326 34.764 23.186 34.674 23.094 34.494L20.082 29.094C20.106 29.306 20.118 29.502 20.118 29.682V36H19.098V27.402H19.956C20.06 27.402 20.14 27.412 20.196 27.432C20.252 27.452 20.306 27.508 20.358 27.6L23.328 32.892C23.376 32.988 23.422 33.088 23.466 33.192C23.514 33.296 23.558 33.402 23.598 33.51C23.638 33.402 23.68 33.296 23.724 33.192C23.768 33.084 23.816 32.982 23.868 32.886L26.784 27.6C26.832 27.508 26.884 27.452 26.94 27.432C27 27.412 27.082 27.402 27.186 27.402H28.044ZM33.871 32.298C33.871 32.05 33.835 31.824 33.763 31.62C33.695 31.412 33.593 31.234 33.457 31.086C33.325 30.934 33.163 30.818 32.971 30.738C32.779 30.654 32.561 30.612 32.317 30.612C31.805 30.612 31.399 30.762 31.099 31.062C30.803 31.358 30.619 31.77 30.547 32.298H33.871ZM34.735 35.148C34.603 35.308 34.445 35.448 34.261 35.568C34.077 35.684 33.879 35.78 33.667 35.856C33.459 35.932 33.243 35.988 33.019 36.024C32.795 36.064 32.573 36.084 32.353 36.084C31.933 36.084 31.545 36.014 31.189 35.874C30.837 35.73 30.531 35.522 30.271 35.25C30.015 34.974 29.815 34.634 29.671 34.23C29.527 33.826 29.455 33.362 29.455 32.838C29.455 32.414 29.519 32.018 29.647 31.65C29.779 31.282 29.967 30.964 30.211 30.696C30.455 30.424 30.753 30.212 31.105 30.06C31.457 29.904 31.853 29.826 32.293 29.826C32.657 29.826 32.993 29.888 33.301 30.012C33.613 30.132 33.881 30.308 34.105 30.54C34.333 30.768 34.511 31.052 34.639 31.392C34.767 31.728 34.831 32.112 34.831 32.544C34.831 32.712 34.813 32.824 34.777 32.88C34.741 32.936 34.673 32.964 34.573 32.964H30.511C30.523 33.348 30.575 33.682 30.667 33.966C30.763 34.25 30.895 34.488 31.063 34.68C31.231 34.868 31.431 35.01 31.663 35.106C31.895 35.198 32.155 35.244 32.443 35.244C32.711 35.244 32.941 35.214 33.133 35.154C33.329 35.09 33.497 35.022 33.637 34.95C33.777 34.878 33.893 34.812 33.985 34.752C34.081 34.688 34.163 34.656 34.231 34.656C34.319 34.656 34.387 34.69 34.435 34.758L34.735 35.148ZM37.1569 31.14C37.3489 30.724 37.5849 30.4 37.8649 30.168C38.1449 29.932 38.4869 29.814 38.8909 29.814C39.0189 29.814 39.1409 29.828 39.2569 29.856C39.3769 29.884 39.4829 29.928 39.5749 29.988L39.4969 30.786C39.4729 30.886 39.4129 30.936 39.3169 30.936C39.2609 30.936 39.1789 30.924 39.0709 30.9C38.9629 30.876 38.8409 30.864 38.7049 30.864C38.5129 30.864 38.3409 30.892 38.1889 30.948C38.0409 31.004 37.9069 31.088 37.7869 31.2C37.6709 31.308 37.5649 31.444 37.4689 31.608C37.3769 31.768 37.2929 31.952 37.2169 32.16V36H36.1429V29.922H36.7549C36.8709 29.922 36.9509 29.944 36.9949 29.988C37.0389 30.032 37.0689 30.108 37.0849 30.216L37.1569 31.14ZM44.4979 31.002C44.4659 31.046 44.4339 31.08 44.4019 31.104C44.3699 31.128 44.3259 31.14 44.2699 31.14C44.2099 31.14 44.1439 31.116 44.0719 31.068C43.9999 31.016 43.9099 30.96 43.8019 30.9C43.6979 30.84 43.5679 30.786 43.4119 30.738C43.2599 30.686 43.0719 30.66 42.8479 30.66C42.5479 30.66 42.2839 30.714 42.0559 30.822C41.8279 30.926 41.6359 31.078 41.4799 31.278C41.3279 31.478 41.2119 31.72 41.1319 32.004C41.0559 32.288 41.0179 32.606 41.0179 32.958C41.0179 33.326 41.0599 33.654 41.1439 33.942C41.2279 34.226 41.3459 34.466 41.4979 34.662C41.6539 34.854 41.8399 35.002 42.0559 35.106C42.2759 35.206 42.5219 35.256 42.7939 35.256C43.0539 35.256 43.2679 35.226 43.4359 35.166C43.6039 35.102 43.7419 35.032 43.8499 34.956C43.9619 34.88 44.0539 34.812 44.1259 34.752C44.2019 34.688 44.2759 34.656 44.3479 34.656C44.4359 34.656 44.5039 34.69 44.5519 34.758L44.8519 35.148C44.7199 35.312 44.5699 35.452 44.4019 35.568C44.2339 35.684 44.0519 35.782 43.8559 35.862C43.6639 35.938 43.4619 35.994 43.2499 36.03C43.0379 36.066 42.8219 36.084 42.6019 36.084C42.2219 36.084 41.8679 36.014 41.5399 35.874C41.2159 35.734 40.9339 35.532 40.6939 35.268C40.4539 35 40.2659 34.672 40.1299 34.284C39.9939 33.896 39.9259 33.454 39.9259 32.958C39.9259 32.506 39.9879 32.088 40.1119 31.704C40.2399 31.32 40.4239 30.99 40.6639 30.714C40.9079 30.434 41.2059 30.216 41.5579 30.06C41.9139 29.904 42.3219 29.826 42.7819 29.826C43.2099 29.826 43.5859 29.896 43.9099 30.036C44.2379 30.172 44.5279 30.366 44.7799 30.618L44.4979 31.002ZM47.0723 30.732C47.3323 30.456 47.6203 30.236 47.9363 30.072C48.2523 29.908 48.6163 29.826 49.0283 29.826C49.3603 29.826 49.6523 29.882 49.9043 29.994C50.1603 30.102 50.3723 30.258 50.5403 30.462C50.7123 30.662 50.8423 30.904 50.9303 31.188C51.0183 31.472 51.0623 31.786 51.0623 32.13V36H49.9883V32.13C49.9883 31.67 49.8823 31.314 49.6703 31.062C49.4623 30.806 49.1443 30.678 48.7163 30.678C48.4003 30.678 48.1043 30.754 47.8283 30.906C47.5563 31.058 47.3043 31.264 47.0723 31.524V36H45.9983V27.162H47.0723V30.732Z" fill="#333333"/>
<path fill-rule="evenodd" clip-rule="evenodd" d="M1 6C1 4.89543 1.89543 4 3 4H7C8.10457 4 9 4.89543 9 6V10C9 11.1046 8.10457 12 7 12H3C1.89543 12 1 11.1046 1 10V6Z" fill="#FF7C64"/>
<path d="M23.664 8.808L22.314 5.31C22.274 5.206 22.232 5.086 22.188 4.95C22.144 4.81 22.102 4.662 22.062 4.506C21.978 4.83 21.892 5.1 21.804 5.316L20.454 8.808H23.664ZM26.088 12H25.188C25.084 12 25 11.974 24.936 11.922C24.872 11.87 24.824 11.804 24.792 11.724L23.988 9.648H20.13L19.326 11.724C19.302 11.796 19.256 11.86 19.188 11.916C19.12 11.972 19.036 12 18.936 12H18.036L21.474 3.402H22.65L26.088 12ZM30.7982 7.368C30.5982 7.1 30.3822 6.914 30.1502 6.81C29.9182 6.702 29.6582 6.648 29.3702 6.648C28.8062 6.648 28.3722 6.85 28.0682 7.254C27.7642 7.658 27.6122 8.234 27.6122 8.982C27.6122 9.378 27.6462 9.718 27.7142 10.002C27.7822 10.282 27.8822 10.514 28.0142 10.698C28.1462 10.878 28.3082 11.01 28.5002 11.094C28.6922 11.178 28.9102 11.22 29.1542 11.22C29.5062 11.22 29.8122 11.14 30.0722 10.98C30.3362 10.82 30.5782 10.594 30.7982 10.302V7.368ZM31.8662 3.162V12H31.2302C31.0782 12 30.9822 11.926 30.9422 11.778L30.8462 11.04C30.5862 11.352 30.2902 11.604 29.9582 11.796C29.6262 11.988 29.2422 12.084 28.8062 12.084C28.4582 12.084 28.1422 12.018 27.8582 11.886C27.5742 11.75 27.3322 11.552 27.1322 11.292C26.9322 11.032 26.7782 10.708 26.6702 10.32C26.5622 9.932 26.5082 9.486 26.5082 8.982C26.5082 8.534 26.5682 8.118 26.6882 7.734C26.8082 7.346 26.9802 7.01 27.2042 6.726C27.4282 6.442 27.7022 6.22 28.0262 6.06C28.3542 5.896 28.7222 5.814 29.1302 5.814C29.5022 5.814 29.8202 5.878 30.0842 6.006C30.3522 6.13 30.5902 6.304 30.7982 6.528V3.162H31.8662ZM37.093 6.924C37.045 7.012 36.971 7.056 36.871 7.056C36.811 7.056 36.743 7.034 36.667 6.99C36.591 6.946 36.497 6.898 36.385 6.846C36.277 6.79 36.147 6.74 35.995 6.696C35.843 6.648 35.663 6.624 35.455 6.624C35.275 6.624 35.113 6.648 34.969 6.696C34.825 6.74 34.701 6.802 34.597 6.882C34.497 6.962 34.419 7.056 34.363 7.164C34.311 7.268 34.285 7.382 34.285 7.506C34.285 7.662 34.329 7.792 34.417 7.896C34.509 8 34.629 8.09 34.777 8.166C34.925 8.242 35.093 8.31 35.281 8.37C35.469 8.426 35.661 8.488 35.857 8.556C36.057 8.62 36.251 8.692 36.439 8.772C36.627 8.852 36.795 8.952 36.943 9.072C37.091 9.192 37.209 9.34 37.297 9.516C37.389 9.688 37.435 9.896 37.435 10.14C37.435 10.42 37.385 10.68 37.285 10.92C37.185 11.156 37.037 11.362 36.841 11.538C36.645 11.71 36.405 11.846 36.121 11.946C35.837 12.046 35.509 12.096 35.137 12.096C34.713 12.096 34.329 12.028 33.985 11.892C33.641 11.752 33.349 11.574 33.109 11.358L33.361 10.95C33.393 10.898 33.431 10.858 33.475 10.83C33.519 10.802 33.575 10.788 33.643 10.788C33.715 10.788 33.791 10.816 33.871 10.872C33.951 10.928 34.047 10.99 34.159 11.058C34.275 11.126 34.415 11.188 34.579 11.244C34.743 11.3 34.947 11.328 35.191 11.328C35.399 11.328 35.581 11.302 35.737 11.25C35.893 11.194 36.023 11.12 36.127 11.028C36.231 10.936 36.307 10.83 36.355 10.71C36.407 10.59 36.433 10.462 36.433 10.326C36.433 10.158 36.387 10.02 36.295 9.912C36.207 9.8 36.089 9.706 35.941 9.63C35.793 9.55 35.623 9.482 35.431 9.426C35.243 9.366 35.049 9.304 34.849 9.24C34.653 9.176 34.459 9.104 34.267 9.024C34.079 8.94 33.911 8.836 33.763 8.712C33.615 8.588 33.495 8.436 33.403 8.256C33.315 8.072 33.271 7.85 33.271 7.59C33.271 7.358 33.319 7.136 33.415 6.924C33.511 6.708 33.651 6.52 33.835 6.36C34.019 6.196 34.245 6.066 34.513 5.97C34.781 5.874 35.087 5.826 35.431 5.826C35.831 5.826 36.189 5.89 36.505 6.018C36.825 6.142 37.101 6.314 37.333 6.534L37.093 6.924ZM42.8124 8.298C42.8124 8.05 42.7764 7.824 42.7044 7.62C42.6364 7.412 42.5344 7.234 42.3984 7.086C42.2664 6.934 42.1044 6.818 41.9124 6.738C41.7204 6.654 41.5024 6.612 41.2584 6.612C40.7464 6.612 40.3404 6.762 40.0404 7.062C39.7444 7.358 39.5604 7.77 39.4884 8.298H42.8124ZM43.6764 11.148C43.5444 11.308 43.3864 11.448 43.2024 11.568C43.0184 11.684 42.8204 11.78 42.6084 11.856C42.4004 11.932 42.1844 11.988 41.9604 12.024C41.7364 12.064 41.5144 12.084 41.2944 12.084C40.8744 12.084 40.4864 12.014 40.1304 11.874C39.7784 11.73 39.4724 11.522 39.2124 11.25C38.9564 10.974 38.7564 10.634 38.6124 10.23C38.4684 9.826 38.3964 9.362 38.3964 8.838C38.3964 8.414 38.4604 8.018 38.5884 7.65C38.7204 7.282 38.9084 6.964 39.1524 6.696C39.3964 6.424 39.6944 6.212 40.0464 6.06C40.3984 5.904 40.7944 5.826 41.2344 5.826C41.5984 5.826 41.9344 5.888 42.2424 6.012C42.5544 6.132 42.8224 6.308 43.0464 6.54C43.2744 6.768 43.4524 7.052 43.5804 7.392C43.7084 7.728 43.7724 8.112 43.7724 8.544C43.7724 8.712 43.7544 8.824 43.7184 8.88C43.6824 8.936 43.6144 8.964 43.5144 8.964H39.4524C39.4644 9.348 39.5164 9.682 39.6084 9.966C39.7044 10.25 39.8364 10.488 40.0044 10.68C40.1724 10.868 40.3724 11.01 40.6044 11.106C40.8364 11.198 41.0964 11.244 41.3844 11.244C41.6524 11.244 41.8824 11.214 42.0744 11.154C42.2704 11.09 42.4384 11.022 42.5784 10.95C42.7184 10.878 42.8344 10.812 42.9264 10.752C43.0224 10.688 43.1044 10.656 43.1724 10.656C43.2604 10.656 43.3284 10.69 43.3764 10.758L43.6764 11.148ZM46.0923 6.804C46.2243 6.656 46.3643 6.522 46.5123 6.402C46.6603 6.282 46.8163 6.18 46.9803 6.096C47.1483 6.008 47.3243 5.942 47.5083 5.898C47.6963 5.85 47.8983 5.826 48.1143 5.826C48.4463 5.826 48.7383 5.882 48.9903 5.994C49.2463 6.102 49.4583 6.258 49.6263 6.462C49.7983 6.662 49.9283 6.904 50.0163 7.188C50.1043 7.472 50.1483 7.786 50.1483 8.13V12H49.0743V8.13C49.0743 7.67 48.9683 7.314 48.7563 7.062C48.5483 6.806 48.2303 6.678 47.8023 6.678C47.4863 6.678 47.1903 6.754 46.9143 6.906C46.6423 7.058 46.3903 7.264 46.1583 7.524V12H45.0843V5.922H45.7263C45.8783 5.922 45.9723 5.996 46.0083 6.144L46.0923 6.804ZM55.3157 6.924C55.2677 7.012 55.1937 7.056 55.0937 7.056C55.0337 7.056 54.9657 7.034 54.8897 6.99C54.8137 6.946 54.7197 6.898 54.6077 6.846C54.4997 6.79 54.3697 6.74 54.2177 6.696C54.0657 6.648 53.8857 6.624 53.6777 6.624C53.4977 6.624 53.3357 6.648 53.1917 6.696C53.0477 6.74 52.9237 6.802 52.8197 6.882C52.7197 6.962 52.6417 7.056 52.5857 7.164C52.5337 7.268 52.5077 7.382 52.5077 7.506C52.5077 7.662 52.5517 7.792 52.6397 7.896C52.7317 8 52.8517 8.09 52.9997 8.166C53.1477 8.242 53.3157 8.31 53.5037 8.37C53.6917 8.426 53.8837 8.488 54.0797 8.556C54.2797 8.62 54.4737 8.692 54.6617 8.772C54.8497 8.852 55.0177 8.952 55.1657 9.072C55.3137 9.192 55.4317 9.34 55.5197 9.516C55.6117 9.688 55.6577 9.896 55.6577 10.14C55.6577 10.42 55.6077 10.68 55.5077 10.92C55.4077 11.156 55.2597 11.362 55.0637 11.538C54.8677 11.71 54.6277 11.846 54.3437 11.946C54.0597 12.046 53.7317 12.096 53.3597 12.096C52.9357 12.096 52.5517 12.028 52.2077 11.892C51.8637 11.752 51.5717 11.574 51.3317 11.358L51.5837 10.95C51.6157 10.898 51.6537 10.858 51.6977 10.83C51.7417 10.802 51.7977 10.788 51.8657 10.788C51.9377 10.788 52.0137 10.816 52.0937 10.872C52.1737 10.928 52.2697 10.99 52.3817 11.058C52.4977 11.126 52.6377 11.188 52.8017 11.244C52.9657 11.3 53.1697 11.328 53.4137 11.328C53.6217 11.328 53.8037 11.302 53.9597 11.25C54.1157 11.194 54.2457 11.12 54.3497 11.028C54.4537 10.936 54.5297 10.83 54.5777 10.71C54.6297 10.59 54.6557 10.462 54.6557 10.326C54.6557 10.158 54.6097 10.02 54.5177 9.912C54.4297 9.8 54.3117 9.706 54.1637 9.63C54.0157 9.55 53.8457 9.482 53.6537 9.426C53.4657 9.366 53.2717 9.304 53.0717 9.24C52.8757 9.176 52.6817 9.104 52.4897 9.024C52.3017 8.94 52.1337 8.836 51.9857 8.712C51.8377 8.588 51.7177 8.436 51.6257 8.256C51.5377 8.072 51.4937 7.85 51.4937 7.59C51.4937 7.358 51.5417 7.136 51.6377 6.924C51.7337 6.708 51.8737 6.52 52.0577 6.36C52.2417 6.196 52.4677 6.066 52.7357 5.97C53.0037 5.874 53.3097 5.826 53.6537 5.826C54.0537 5.826 54.4117 5.89 54.7277 6.018C55.0477 6.142 55.3237 6.314 55.5557 6.534L55.3157 6.924ZM61.0351 8.298C61.0351 8.05 60.9991 7.824 60.9271 7.62C60.8591 7.412 60.7571 7.234 60.6211 7.086C60.4891 6.934 60.3271 6.818 60.1351 6.738C59.9431 6.654 59.7251 6.612 59.4811 6.612C58.9691 6.612 58.5631 6.762 58.2631 7.062C57.9671 7.358 57.7831 7.77 57.7111 8.298H61.0351ZM61.8991 11.148C61.7671 11.308 61.6091 11.448 61.4251 11.568C61.2411 11.684 61.0431 11.78 60.8311 11.856C60.6231 11.932 60.4071 11.988 60.1831 12.024C59.9591 12.064 59.7371 12.084 59.5171 12.084C59.0971 12.084 58.7091 12.014 58.3531 11.874C58.0011 11.73 57.6951 11.522 57.4351 11.25C57.1791 10.974 56.9791 10.634 56.8351 10.23C56.6911 9.826 56.6191 9.362 56.6191 8.838C56.6191 8.414 56.6831 8.018 56.8111 7.65C56.9431 7.282 57.1311 6.964 57.3751 6.696C57.6191 6.424 57.9171 6.212 58.2691 6.06C58.6211 5.904 59.0171 5.826 59.4571 5.826C59.8211 5.826 60.1571 5.888 60.4651 6.012C60.7771 6.132 61.0451 6.308 61.2691 6.54C61.4971 6.768 61.6751 7.052 61.8031 7.392C61.9311 7.728 61.9951 8.112 61.9951 8.544C61.9951 8.712 61.9771 8.824 61.9411 8.88C61.9051 8.936 61.8371 8.964 61.7371 8.964H57.6751C57.6871 9.348 57.7391 9.682 57.8311 9.966C57.9271 10.25 58.0591 10.488 58.2271 10.68C58.3951 10.868 58.5951 11.01 58.8271 11.106C59.0591 11.198 59.3191 11.244 59.6071 11.244C59.8751 11.244 60.1051 11.214 60.2971 11.154C60.4931 11.09 60.6611 11.022 60.8011 10.95C60.9411 10.878 61.0571 10.812 61.1491 10.752C61.2451 10.688 61.3271 10.656 61.3951 10.656C61.4831 10.656 61.5511 10.69 61.5991 10.758L61.8991 11.148Z" fill="#333333"/>
</svg>
