<svg width="241" height="32" viewBox="0 0 241 32" fill="none" xmlns="http://www.w3.org/2000/svg">
<path fill-rule="evenodd" clip-rule="evenodd" d="M232.726 16.4849H241V18.4243H232.726V16.4849Z" fill="#00D778"/>
<path opacity="0.6" fill-rule="evenodd" clip-rule="evenodd" d="M232.726 20.3636H241V32H232.726V20.3636Z" fill="#00D778"/>
<path fill-rule="evenodd" clip-rule="evenodd" d="M223.416 14.5454H231.691V16.4848H223.416V14.5454Z" fill="#00D778"/>
<path opacity="0.6" fill-rule="evenodd" clip-rule="evenodd" d="M223.416 18.4242H231.691V32H223.416V18.4242Z" fill="#00D778"/>
<path fill-rule="evenodd" clip-rule="evenodd" d="M214.107 13.5758H222.382V15.5152H214.107V13.5758Z" fill="#00D778"/>
<path opacity="0.6" fill-rule="evenodd" clip-rule="evenodd" d="M214.107 17.4546H222.382V32H214.107V17.4546Z" fill="#00D778"/>
<path fill-rule="evenodd" clip-rule="evenodd" d="M204.798 21.3334H213.073V23.2728H204.798V21.3334Z" fill="#00D778"/>
<path opacity="0.6" fill-rule="evenodd" clip-rule="evenodd" d="M204.798 25.2122H213.073V32H204.798V25.2122Z" fill="#00D778"/>
<path fill-rule="evenodd" clip-rule="evenodd" d="M195.489 20.3636H203.764V22.303H195.489V20.3636Z" fill="#00D778"/>
<path opacity="0.6" fill-rule="evenodd" clip-rule="evenodd" d="M195.489 24.2424H203.764V32H195.489V24.2424Z" fill="#00D778"/>
<path fill-rule="evenodd" clip-rule="evenodd" d="M186.181 25.2122H194.455V27.1516H186.181V25.2122Z" fill="#00D778"/>
<path opacity="0.6" fill-rule="evenodd" clip-rule="evenodd" d="M186.181 29.0909H194.455V32H186.181V29.0909Z" fill="#00D778"/>
<path fill-rule="evenodd" clip-rule="evenodd" d="M176.871 12.6061H185.146V14.5455H176.871V12.6061Z" fill="#00D778"/>
<path opacity="0.6" fill-rule="evenodd" clip-rule="evenodd" d="M176.871 16.4849H185.146V32H176.871V16.4849Z" fill="#00D778"/>
<path fill-rule="evenodd" clip-rule="evenodd" d="M167.562 11.6364H175.837V13.5757H167.562V11.6364Z" fill="#00D778"/>
<path opacity="0.6" fill-rule="evenodd" clip-rule="evenodd" d="M167.562 15.5151H175.837V32H167.562V15.5151Z" fill="#00D778"/>
<path fill-rule="evenodd" clip-rule="evenodd" d="M158.253 6.78784H166.528V8.72724H158.253V6.78784Z" fill="#00D778"/>
<path opacity="0.6" fill-rule="evenodd" clip-rule="evenodd" d="M158.253 10.6666H166.528V32H158.253V10.6666Z" fill="#00D778"/>
<path fill-rule="evenodd" clip-rule="evenodd" d="M148.944 4.84851H157.219V6.7879H148.944V4.84851Z" fill="#00D778"/>
<path opacity="0.6" fill-rule="evenodd" clip-rule="evenodd" d="M148.944 8.72729H157.219V32H148.944V8.72729Z" fill="#00D778"/>
<path fill-rule="evenodd" clip-rule="evenodd" d="M139.635 11.6364H147.909V13.5757H139.635V11.6364Z" fill="#00D778"/>
<path opacity="0.6" fill-rule="evenodd" clip-rule="evenodd" d="M139.635 15.5151H147.909V32H139.635V15.5151Z" fill="#00D778"/>
<path fill-rule="evenodd" clip-rule="evenodd" d="M130.326 13.5758H138.601V15.5152H130.326V13.5758Z" fill="#00D778"/>
<path opacity="0.6" fill-rule="evenodd" clip-rule="evenodd" d="M130.326 17.4546H138.601V32H130.326V17.4546Z" fill="#00D778"/>
<path fill-rule="evenodd" clip-rule="evenodd" d="M121.018 16.4849H129.292V18.4243H121.018V16.4849Z" fill="#00D778"/>
<path opacity="0.6" fill-rule="evenodd" clip-rule="evenodd" d="M121.018 20.3636H129.292V32H121.018V20.3636Z" fill="#00D778"/>
<path fill-rule="evenodd" clip-rule="evenodd" d="M111.708 12.6061H119.983V14.5455H111.708V12.6061Z" fill="#00D778"/>
<path opacity="0.6" fill-rule="evenodd" clip-rule="evenodd" d="M111.708 16.4849H119.983V32H111.708V16.4849Z" fill="#00D778"/>
<path fill-rule="evenodd" clip-rule="evenodd" d="M102.399 5.81824H110.674V7.75763H102.399V5.81824Z" fill="#00D778"/>
<path opacity="0.6" fill-rule="evenodd" clip-rule="evenodd" d="M102.399 9.69702H110.674V32.0001H102.399V9.69702Z" fill="#00D778"/>
<path fill-rule="evenodd" clip-rule="evenodd" d="M93.0898 0H101.365V1.93939H93.0898V0Z" fill="#00D778"/>
<path opacity="0.6" fill-rule="evenodd" clip-rule="evenodd" d="M93.0898 3.87878H101.365V32H93.0898V3.87878Z" fill="#00D778"/>
<path fill-rule="evenodd" clip-rule="evenodd" d="M83.7812 1.93958H92.0559V3.87897H83.7812V1.93958Z" fill="#00D778"/>
<path opacity="0.6" fill-rule="evenodd" clip-rule="evenodd" d="M83.7812 5.81824H92.0559V32.0001H83.7812V5.81824Z" fill="#00D778"/>
<path fill-rule="evenodd" clip-rule="evenodd" d="M74.4717 19.3939H82.7464V21.3333H74.4717V19.3939Z" fill="#00D778"/>
<path opacity="0.6" fill-rule="evenodd" clip-rule="evenodd" d="M74.4717 23.2727H82.7464V32H74.4717V23.2727Z" fill="#00D778"/>
<path fill-rule="evenodd" clip-rule="evenodd" d="M65.1631 11.6364H73.4378V13.5757H65.1631V11.6364Z" fill="#00D778"/>
<path opacity="0.6" fill-rule="evenodd" clip-rule="evenodd" d="M65.1631 15.5151H73.4378V32H65.1631V15.5151Z" fill="#00D778"/>
<path fill-rule="evenodd" clip-rule="evenodd" d="M55.8545 7.75757H64.1292V9.69696H55.8545V7.75757Z" fill="#00D778"/>
<path opacity="0.6" fill-rule="evenodd" clip-rule="evenodd" d="M55.8545 11.6364H64.1292V32H55.8545V11.6364Z" fill="#00D778"/>
<path fill-rule="evenodd" clip-rule="evenodd" d="M46.5449 8.72729H54.8196V10.6667H46.5449V8.72729Z" fill="#00D778"/>
<path opacity="0.6" fill-rule="evenodd" clip-rule="evenodd" d="M46.5449 12.6061H54.8196V32H46.5449V12.6061Z" fill="#00D778"/>
<path fill-rule="evenodd" clip-rule="evenodd" d="M37.2363 5.81824H45.511V7.75763H37.2363V5.81824Z" fill="#00D778"/>
<path opacity="0.6" fill-rule="evenodd" clip-rule="evenodd" d="M37.2363 9.69702H45.511V32.0001H37.2363V9.69702Z" fill="#00D778"/>
<path fill-rule="evenodd" clip-rule="evenodd" d="M27.9268 19.3939H36.2014V21.3333H27.9268V19.3939Z" fill="#00D778"/>
<path opacity="0.6" fill-rule="evenodd" clip-rule="evenodd" d="M27.9268 23.2727H36.2014V32H27.9268V23.2727Z" fill="#00D778"/>
<path fill-rule="evenodd" clip-rule="evenodd" d="M18.6182 21.3334H26.8928V23.2728H18.6182V21.3334Z" fill="#00D778"/>
<path opacity="0.6" fill-rule="evenodd" clip-rule="evenodd" d="M18.6182 25.2122H26.8928V32H18.6182V25.2122Z" fill="#00D778"/>
<path fill-rule="evenodd" clip-rule="evenodd" d="M9.30859 11.6364H17.5833V13.5757H9.30859V11.6364Z" fill="#00D778"/>
<path opacity="0.6" fill-rule="evenodd" clip-rule="evenodd" d="M9.30859 15.5151H17.5833V32H9.30859V15.5151Z" fill="#00D778"/>
<path fill-rule="evenodd" clip-rule="evenodd" d="M0 14.5454H8.27468V16.4848H0V14.5454Z" fill="#00D778"/>
<path opacity="0.6" fill-rule="evenodd" clip-rule="evenodd" d="M0 18.4242H8.27468V32H0V18.4242Z" fill="#00D778"/>
</svg>
