<svg width="113" height="116" viewBox="0 0 113 116" fill="none" xmlns="http://www.w3.org/2000/svg">
<path d="M7.20391 73.27C10.4619 73.27 12.4059 71.2 12.9819 69.04L11.0019 68.392C10.5699 69.832 9.34591 71.2 7.20391 71.2C5.02591 71.2 2.97391 69.616 2.97391 66.628C2.97391 63.532 5.07991 62.002 7.18591 62.002C9.32791 62.002 10.5159 63.244 10.8939 64.792L12.9279 64.108C12.3519 61.876 10.4259 59.968 7.18591 59.968C3.87391 59.968 0.759906 62.47 0.759906 66.628C0.759906 70.786 3.76591 73.27 7.20391 73.27ZM20.349 72.028C20.349 72.388 20.385 72.802 20.421 73H22.419C22.383 72.676 22.329 72.118 22.329 71.398V64.234H20.241V69.418C20.241 70.57 19.611 71.38 18.405 71.38C17.145 71.38 16.641 70.462 16.641 69.382V64.234H14.553V69.76C14.553 71.704 15.777 73.252 17.865 73.252C18.891 73.252 19.917 72.82 20.349 72.028ZM24.2576 70.624C24.3656 71.614 25.3376 73.27 27.8756 73.27C30.1076 73.27 31.1876 71.794 31.1876 70.462C31.1876 69.166 30.3236 68.158 28.6676 67.798L27.3356 67.528C26.7956 67.42 26.4536 67.078 26.4536 66.61C26.4536 66.07 26.9756 65.602 27.7136 65.602C28.8836 65.602 29.2616 66.412 29.3336 66.916L31.0976 66.412C30.9536 65.548 30.1616 63.964 27.7136 63.964C25.8956 63.964 24.4916 65.26 24.4916 66.79C24.4916 67.996 25.3016 69.004 26.8496 69.346L28.1456 69.634C28.8476 69.778 29.1716 70.138 29.1716 70.606C29.1716 71.146 28.7216 71.614 27.8576 71.614C26.7416 71.614 26.1476 70.912 26.0756 70.12L24.2576 70.624ZM35.9042 61.552H34.0142V62.866C34.0142 63.64 33.6002 64.234 32.6642 64.234H32.2142V66.088H33.8342V70.498C33.8342 72.136 34.8422 73.108 36.4622 73.108C37.2182 73.108 37.6142 72.964 37.7402 72.91V71.182C37.6502 71.2 37.3082 71.254 37.0202 71.254C36.2462 71.254 35.9042 70.93 35.9042 70.156V66.088H37.7222V64.234H35.9042V61.552ZM43.6317 71.398C42.3537 71.398 41.1837 70.426 41.1837 68.608C41.1837 66.79 42.3537 65.854 43.6317 65.854C44.9277 65.854 46.0797 66.79 46.0797 68.608C46.0797 70.444 44.9277 71.398 43.6317 71.398ZM43.6317 63.964C41.0217 63.964 39.0957 65.926 39.0957 68.608C39.0957 71.308 41.0217 73.27 43.6317 73.27C46.2597 73.27 48.1857 71.308 48.1857 68.608C48.1857 65.926 46.2597 63.964 43.6317 63.964ZM52.2735 73V67.798C52.2735 66.682 52.9755 65.854 54.0915 65.854C55.2795 65.854 55.7835 66.646 55.7835 67.654V73H57.8355V67.798C57.8355 66.718 58.5555 65.854 59.6535 65.854C60.8235 65.854 61.3455 66.628 61.3455 67.654V73H63.3615V67.312C63.3615 64.99 61.8495 63.982 60.2655 63.982C59.1315 63.982 58.1055 64.378 57.4215 65.53C56.9535 64.504 55.9455 63.982 54.7935 63.982C53.8035 63.982 52.7055 64.45 52.2015 65.35V64.234H50.2035V73H52.2735ZM67.9884 73V64.234H65.9184V73H67.9884ZM65.5944 61.156C65.5944 61.912 66.2064 62.506 66.9444 62.506C67.7004 62.506 68.3124 61.912 68.3124 61.156C68.3124 60.4 67.7004 59.788 66.9444 59.788C66.2064 59.788 65.5944 60.4 65.5944 61.156ZM77.18 73V71.164H72.59L77.09 65.998V64.234H70.106V66.07H74.462L70.016 71.182V73H77.18ZM78.7202 70.624C78.7202 72.01 79.8542 73.27 81.6902 73.27C83.1122 73.27 83.9762 72.55 84.3902 71.884C84.3902 72.586 84.4622 72.946 84.4802 73H86.4242C86.4062 72.91 86.3162 72.388 86.3162 71.596V67.24C86.3162 65.494 85.2902 63.964 82.5902 63.964C80.4302 63.964 79.0622 65.314 78.9002 66.826L80.8082 67.258C80.8982 66.376 81.5102 65.674 82.6082 65.674C83.7602 65.674 84.2642 66.268 84.2642 67.006C84.2642 67.312 84.1202 67.564 83.6162 67.636L81.3662 67.978C79.8722 68.194 78.7202 69.058 78.7202 70.624ZM82.0862 71.632C81.2582 71.632 80.8082 71.092 80.8082 70.498C80.8082 69.778 81.3302 69.418 81.9782 69.31L84.2642 68.968V69.364C84.2642 71.074 83.2562 71.632 82.0862 71.632ZM90.8742 73V71.83C91.3782 72.676 92.3322 73.216 93.5742 73.216C96.1302 73.216 97.6962 71.218 97.6962 68.572C97.6962 65.998 96.2742 64 93.6462 64C92.2962 64 91.2882 64.63 90.8922 65.314V59.968H88.8402V73H90.8742ZM95.5902 68.59C95.5902 70.318 94.6002 71.362 93.2322 71.362C91.9002 71.362 90.8742 70.318 90.8742 68.59C90.8742 66.844 91.9002 65.854 93.2322 65.854C94.6182 65.854 95.5902 66.844 95.5902 68.59ZM101.792 73V59.968H99.7035V73H101.792ZM105.943 67.654C106.015 66.718 106.771 65.71 108.085 65.71C109.525 65.71 110.209 66.628 110.245 67.654H105.943ZM110.479 69.94C110.191 70.804 109.543 71.47 108.283 71.47C106.987 71.47 105.943 70.516 105.889 69.184H112.297C112.315 69.148 112.351 68.86 112.351 68.518C112.351 65.746 110.767 63.964 108.067 63.964C105.853 63.964 103.801 65.8 103.801 68.572C103.801 71.542 105.907 73.27 108.283 73.27C110.389 73.27 111.775 72.028 112.243 70.498L110.479 69.94ZM29.9029 86.106V82.146H32.1529C33.5209 82.146 34.3489 82.92 34.3489 84.144C34.3489 85.35 33.5209 86.106 32.1529 86.106H29.9029ZM32.4769 88.014C34.9249 88.014 36.5449 86.376 36.5449 84.126C36.5449 81.894 34.9249 80.238 32.4769 80.238H27.7429V93H29.9029V88.014H32.4769ZM43.2925 84.18C43.2025 84.162 42.9865 84.126 42.7345 84.126C41.5825 84.126 40.6105 84.684 40.1965 85.638V84.234H38.1625V93H40.2505V88.824C40.2505 87.186 40.9885 86.25 42.6085 86.25C42.8245 86.25 43.0585 86.268 43.2925 86.304V84.18ZM47.1055 93V84.234H45.0355V93H47.1055ZM44.7115 81.156C44.7115 81.912 45.3235 82.506 46.0615 82.506C46.8175 82.506 47.4295 81.912 47.4295 81.156C47.4295 80.4 46.8175 79.788 46.0615 79.788C45.3235 79.788 44.7115 80.4 44.7115 81.156ZM57.7192 84.234H55.5232L53.2552 90.498L50.9332 84.234H48.6292L52.1932 93H54.2812L57.7192 84.234ZM58.6635 90.624C58.6635 92.01 59.7975 93.27 61.6335 93.27C63.0555 93.27 63.9195 92.55 64.3335 91.884C64.3335 92.586 64.4055 92.946 64.4235 93H66.3675C66.3495 92.91 66.2595 92.388 66.2595 91.596V87.24C66.2595 85.494 65.2335 83.964 62.5335 83.964C60.3735 83.964 59.0055 85.314 58.8435 86.826L60.7515 87.258C60.8415 86.376 61.4535 85.674 62.5515 85.674C63.7035 85.674 64.2075 86.268 64.2075 87.006C64.2075 87.312 64.0635 87.564 63.5595 87.636L61.3095 87.978C59.8155 88.194 58.6635 89.058 58.6635 90.624ZM62.0295 91.632C61.2015 91.632 60.7515 91.092 60.7515 90.498C60.7515 89.778 61.2735 89.418 61.9215 89.31L64.2075 88.968V89.364C64.2075 91.074 63.1995 91.632 62.0295 91.632ZM72.582 85.89C73.914 85.89 74.508 86.754 74.706 87.528L76.578 86.844C76.218 85.44 74.922 83.964 72.564 83.964C70.044 83.964 68.082 85.908 68.082 88.608C68.082 91.272 70.044 93.27 72.618 93.27C74.922 93.27 76.236 91.776 76.65 90.408L74.814 89.742C74.616 90.408 73.986 91.362 72.618 91.362C71.304 91.362 70.17 90.372 70.17 88.608C70.17 86.844 71.304 85.89 72.582 85.89ZM81.0277 96.546L86.6077 84.234H84.3937L82.0357 89.778L79.5157 84.234H77.1577L80.9017 91.956L78.7957 96.546H81.0277ZM28.324 113.27C31.582 113.27 33.526 111.2 34.102 109.04L32.122 108.392C31.69 109.832 30.466 111.2 28.324 111.2C26.146 111.2 24.094 109.616 24.094 106.628C24.094 103.532 26.2 102.002 28.306 102.002C30.448 102.002 31.636 103.244 32.014 104.792L34.048 104.108C33.472 101.876 31.546 99.968 28.306 99.968C24.994 99.968 21.88 102.47 21.88 106.628C21.88 110.786 24.886 113.27 28.324 113.27ZM39.6502 111.398C38.3722 111.398 37.2022 110.426 37.2022 108.608C37.2022 106.79 38.3722 105.854 39.6502 105.854C40.9462 105.854 42.0982 106.79 42.0982 108.608C42.0982 110.444 40.9462 111.398 39.6502 111.398ZM39.6502 103.964C37.0402 103.964 35.1142 105.926 35.1142 108.608C35.1142 111.308 37.0402 113.27 39.6502 113.27C42.2782 113.27 44.2042 111.308 44.2042 108.608C44.2042 105.926 42.2782 103.964 39.6502 103.964ZM48.3101 107.942C48.3101 106.79 48.9401 105.872 50.1281 105.872C51.4421 105.872 51.9281 106.736 51.9281 107.816V113H54.0161V107.456C54.0161 105.53 52.9901 103.982 50.8481 103.982C49.8761 103.982 48.8321 104.396 48.2561 105.404V104.234H46.2221V113H48.3101V107.942ZM59.204 101.552H57.314V102.866C57.314 103.64 56.9 104.234 55.964 104.234H55.514V106.088H57.134V110.498C57.134 112.136 58.142 113.108 59.762 113.108C60.518 113.108 60.914 112.964 61.04 112.91V111.182C60.95 111.2 60.608 111.254 60.32 111.254C59.546 111.254 59.204 110.93 59.204 110.156V106.088H61.022V104.234H59.204V101.552ZM68.1392 104.18C68.0492 104.162 67.8332 104.126 67.5812 104.126C66.4292 104.126 65.4572 104.684 65.0432 105.638V104.234H63.0092V113H65.0972V108.824C65.0972 107.186 65.8352 106.25 67.4552 106.25C67.6712 106.25 67.9052 106.268 68.1392 106.304V104.18ZM73.6463 111.398C72.3683 111.398 71.1983 110.426 71.1983 108.608C71.1983 106.79 72.3683 105.854 73.6463 105.854C74.9423 105.854 76.0943 106.79 76.0943 108.608C76.0943 110.444 74.9423 111.398 73.6463 111.398ZM73.6463 103.964C71.0363 103.964 69.1103 105.926 69.1103 108.608C69.1103 111.308 71.0363 113.27 73.6463 113.27C76.2743 113.27 78.2003 111.308 78.2003 108.608C78.2003 105.926 76.2743 103.964 73.6463 103.964ZM82.3062 113V99.968H80.2182V113H82.3062ZM84.2254 110.624C84.3334 111.614 85.3054 113.27 87.8434 113.27C90.0754 113.27 91.1554 111.794 91.1554 110.462C91.1554 109.166 90.2914 108.158 88.6354 107.798L87.3034 107.528C86.7634 107.42 86.4214 107.078 86.4214 106.61C86.4214 106.07 86.9434 105.602 87.6814 105.602C88.8514 105.602 89.2294 106.412 89.3014 106.916L91.0654 106.412C90.9214 105.548 90.1294 103.964 87.6814 103.964C85.8634 103.964 84.4594 105.26 84.4594 106.79C84.4594 107.996 85.2694 109.004 86.8174 109.346L88.1134 109.634C88.8154 109.778 89.1394 110.138 89.1394 110.606C89.1394 111.146 88.6894 111.614 87.8254 111.614C86.7094 111.614 86.1154 110.912 86.0434 110.12L84.2254 110.624Z" fill="black"/>
<g clip-path="url(#clip0)">
<path d="M74.3687 16.2716L72.252 15.5216C71.052 15.0883 70.4353 13.7883 70.852 12.5883C70.8687 12.505 70.902 12.4383 70.9353 12.355L71.8853 10.3216V10.305C72.8187 8.32162 71.9687 5.95495 70.002 5.02162C68.9187 4.50495 67.6687 4.50495 66.602 5.02162L64.5687 5.97162V5.95495C63.4187 6.48829 62.052 6.00495 61.502 4.85495C61.4687 4.77162 61.4353 4.70495 61.402 4.63829L60.652 2.52162C59.9003 0.449953 57.6503 -0.63338 55.5837 0.0999532C54.4503 0.483287 53.567 1.36662 53.167 2.49995L52.417 4.59995V4.58329C51.9837 5.76662 50.667 6.38329 49.4837 5.96662C49.4003 5.93329 49.3337 5.89995 49.267 5.86662L47.2337 4.89995L47.217 4.88329C45.2337 3.93329 42.867 4.78329 41.9337 6.74995C41.417 7.81662 41.417 9.06662 41.9337 10.1333L42.8837 12.15C43.417 13.2833 42.9337 14.65 41.7837 15.2C41.7003 15.2333 41.6337 15.25 41.567 15.2833L39.4503 16.0333H39.4337C37.367 16.75 36.2837 19.0166 37.017 21.0833C37.4003 22.2 38.2837 23.0833 39.417 23.4833L41.517 24.2333L41.5003 24.2166C42.6837 24.6333 43.3003 25.95 42.8837 27.1333C42.8503 27.2 42.817 27.2666 42.7837 27.3333L41.817 29.35V29.3333C40.867 31.3 41.717 33.6666 43.6837 34.6C44.7503 35.1 46.0003 35.1 47.067 34.6L49.0837 33.6333H49.067C50.2003 33.0833 51.567 33.5666 52.117 34.7C52.1503 34.7666 52.167 34.8333 52.2003 34.9166L52.9503 37.0166L52.9337 37C53.667 39.05 55.917 40.1333 57.9837 39.4C59.1003 39 59.9837 38.1166 60.3837 36.9833L61.1337 34.8666V34.85C61.5503 33.65 62.867 33.0333 64.0503 33.45C64.117 33.4666 64.1837 33.5 64.2503 33.5333L66.267 34.4833L66.2503 34.4666C68.217 35.4 70.5837 34.55 71.517 32.5833C72.017 31.5 72.017 30.25 71.517 29.1833L70.5503 27.15L70.5337 27.1333C69.9837 25.9833 70.467 24.6166 71.617 24.0666C71.6837 24.0166 71.7503 24 71.817 23.9666L73.917 23.2H73.9003C75.9503 22.4666 77.0337 20.2 76.3003 18.1333C75.9003 17 75.017 16.1166 73.8837 15.7166L74.3687 16.2716ZM57.0003 27.9716L56.9837 27.955C53.767 27.905 50.867 25.9883 49.567 23.0383L49.5503 23.0216C47.8503 18.9216 49.8003 14.2383 53.8837 12.5383H53.867C57.9503 10.8883 62.5837 12.8216 64.3337 16.8716C66.017 20.955 64.067 25.6383 59.9837 27.3383H59.967C58.9837 27.7216 57.9503 27.9216 56.9003 27.905L57.0003 27.9716Z" fill="black"/>
</g>
<defs>
<clipPath id="clip0">
<rect width="40" height="40" fill="white" transform="translate(37)"/>
</clipPath>
</defs>
</svg>
