<svg width="20" height="20" viewBox="0 0 20 20" fill="none" xmlns="http://www.w3.org/2000/svg">
<path d="M5.00033 5.83325C5.9208 5.83325 6.66699 5.08706 6.66699 4.16659C6.66699 3.24611 5.9208 2.49992 5.00033 2.49992C4.07985 2.49992 3.33366 3.24611 3.33366 4.16659C3.33366 5.08706 4.07985 5.83325 5.00033 5.83325ZM5.00033 7.49992C3.15938 7.49992 1.66699 6.00753 1.66699 4.16659C1.66699 2.32564 3.15938 0.833252 5.00033 0.833252C6.84127 0.833252 8.33366 2.32564 8.33366 4.16659C8.33366 6.00753 6.84127 7.49992 5.00033 7.49992Z" fill="black"/>
<path opacity="0.3" d="M5.83366 9.55398V14.1666C5.83366 15.0871 6.57985 15.8333 7.50033 15.8333H12.5003V17.4999H7.50033C5.65938 17.4999 4.16699 16.0075 4.16699 14.1666V6.66659V5.83325H5.83366V6.66659C5.83366 7.58706 6.57985 8.33325 7.50033 8.33325H12.5003V9.99992H7.50033C6.89318 9.99992 6.32395 9.83759 5.83366 9.55398Z" fill="black"/>
<path d="M15.0003 18.3333C15.9208 18.3333 16.667 17.5871 16.667 16.6666C16.667 15.7461 15.9208 14.9999 15.0003 14.9999C14.0799 14.9999 13.3337 15.7461 13.3337 16.6666C13.3337 17.5871 14.0799 18.3333 15.0003 18.3333ZM15.0003 19.9999C13.1594 19.9999 11.667 18.5075 11.667 16.6666C11.667 14.8256 13.1594 13.3333 15.0003 13.3333C16.8413 13.3333 18.3337 14.8256 18.3337 16.6666C18.3337 18.5075 16.8413 19.9999 15.0003 19.9999Z" fill="black"/>
<path d="M15.0003 10.8333C15.9208 10.8333 16.667 10.0871 16.667 9.16659C16.667 8.24611 15.9208 7.49992 15.0003 7.49992C14.0799 7.49992 13.3337 8.24611 13.3337 9.16659C13.3337 10.0871 14.0799 10.8333 15.0003 10.8333ZM15.0003 12.4999C13.1594 12.4999 11.667 11.0075 11.667 9.16659C11.667 7.32564 13.1594 5.83325 15.0003 5.83325C16.8413 5.83325 18.3337 7.32564 18.3337 9.16659C18.3337 11.0075 16.8413 12.4999 15.0003 12.4999Z" fill="black"/>
</svg>
