<svg width="275" height="53" viewBox="0 0 275 53" fill="none" xmlns="http://www.w3.org/2000/svg">
<path opacity="0.1" fill-rule="evenodd" clip-rule="evenodd" d="M1 10.9317C1 10.9317 8.37761 6.85331 15.7552 6.85331C23.1328 6.85331 26.8216 18.069 36.0436 18.069C45.2656 18.069 43.4212 11.9514 52.6432 11.9514C61.8653 11.9514 63.7097 25.2063 72.9317 25.2063C82.1537 25.2063 85.8425 16.0298 95.0645 16.0298C104.286 16.0298 102.442 18.069 107.975 18.069C113.508 18.069 120.886 8.89253 130.108 8.89253C139.33 8.89253 141.175 12.971 152.241 12.971C163.307 12.971 165.152 11.9514 165.152 11.9514C165.152 11.9514 183.326 5.83371 186.843 12.971C190.361 20.1082 196.223 25.2063 202.672 25.2063C209.121 25.2063 213.225 9.91214 215.57 4.30429C217.915 -1.30355 223.191 6.85331 223.191 6.85331C223.191 6.85331 227.295 10.9317 231.399 10.9317C235.503 10.9317 237.848 10.9317 241.365 8.89253C244.883 6.85331 249.573 7.87292 251.331 11.9514C253.09 16.0298 258.367 23.167 264.229 23.167C270.092 23.167 273.023 15.2745 273.609 13.6129C274.03 12.4208 273.998 33.2142 273.946 45.059C273.927 49.4549 270.355 53 265.959 53H9C4.58172 53 1 49.4183 1 45L1 10.9317Z" fill="url(#paint0_linear)"/>
<path d="M1 10.0137C1 10.0137 8.38818 5.8888 15.7764 5.8888C23.1646 5.8888 26.8586 17.2324 36.0939 17.2324C45.3291 17.2324 43.4821 11.045 52.7173 11.045C61.9525 11.045 63.7996 24.451 73.0348 24.451C82.27 24.451 85.9641 15.1699 95.1994 15.1699C104.435 15.1699 102.588 17.2324 108.129 17.2324C113.67 17.2324 121.058 7.95127 130.293 7.95127C139.528 7.95127 141.375 12.0762 152.458 12.0762C163.54 12.0762 165.387 11.045 165.387 11.045C165.387 11.045 183.587 4.85757 187.11 12.0762C190.632 19.2948 196.503 24.451 202.961 24.451C209.419 24.451 213.529 8.9825 215.877 3.31072C218.226 -2.36105 223.51 5.8888 223.51 5.8888C223.51 5.8888 227.619 10.0137 231.729 10.0137C235.839 10.0137 238.187 10.0137 241.71 7.95127C245.232 5.8888 249.929 6.92004 251.69 11.045C253.452 15.1699 258.736 22.3885 264.606 22.3885C270.477 22.3885 273.413 14.406 274 12.7255" stroke="url(#paint1_linear)" stroke-width="2"/>
<defs>
<linearGradient id="paint0_linear" x1="31.7097" y1="43.1838" x2="44.7137" y2="-26.2636" gradientUnits="userSpaceOnUse">
<stop stop-color="#4C1FA8"/>
<stop offset="0.208333" stop-color="#5A22A0"/>
<stop offset="0.484375" stop-color="#702495"/>
<stop offset="0.71875" stop-color="#8B2685"/>
<stop offset="1" stop-color="#9E2679"/>
</linearGradient>
<linearGradient id="paint1_linear" x1="31.7125" y1="19.9074" x2="34.5745" y2="-13.117" gradientUnits="userSpaceOnUse">
<stop stop-color="#4C1FA8"/>
<stop offset="0.208333" stop-color="#5A22A0"/>
<stop offset="0.484375" stop-color="#702495"/>
<stop offset="0.71875" stop-color="#8B2685"/>
<stop offset="1" stop-color="#9E2679"/>
</linearGradient>
</defs>
</svg>
