<svg width="20" height="20" viewBox="0 0 20 20" fill="none" xmlns="http://www.w3.org/2000/svg">
<path fill-rule="evenodd" clip-rule="evenodd" d="M3.29758 7.01269L9.56546 3.18232C9.83222 3.0193 10.1678 3.0193 10.4345 3.18232L16.7024 7.01269C17.1978 7.31545 17.5 7.85421 17.5 8.43482V15.8335C17.5 16.754 16.7538 17.5002 15.8333 17.5002L4.16667 17.5002C3.24619 17.5002 2.5 16.754 2.5 15.8335L2.50001 8.43482C2.50001 7.85422 2.80217 7.31545 3.2976 7.01269L3.29758 7.01269ZM8.33333 10.8334C7.8731 10.8334 7.5 11.2065 7.5 11.6668V14.1668C7.5 14.627 7.8731 15.0001 8.33333 15.0001H11.6667C12.1269 15.0001 12.5 14.627 12.5 14.1668V11.6668C12.5 11.2065 12.1269 10.8334 11.6667 10.8334H8.33333Z" fill="black"/>
</svg>
