<svg width="20" height="20" viewBox="0 0 20 20" fill="none" xmlns="http://www.w3.org/2000/svg">
<path opacity="0.3" d="M16.667 4.58325C16.667 3.8929 16.1073 3.33325 15.417 3.33325C14.7266 3.33325 14.167 3.8929 14.167 4.58325V12.9166C14.167 13.6069 14.7266 14.1666 15.417 14.1666C16.1073 14.1666 16.667 13.6069 16.667 12.9166V4.58325Z" fill="black"/>
<path opacity="0.3" d="M12.5 8.75C12.5 8.05964 11.9404 7.5 11.25 7.5C10.5596 7.5 10 8.05964 10 8.75V12.9167C10 13.607 10.5596 14.1667 11.25 14.1667C11.9404 14.1667 12.5 13.607 12.5 12.9167V8.75Z" fill="black"/>
<path d="M4.16667 15.8333H16.6667C17.1269 15.8333 17.5 16.2064 17.5 16.6667C17.5 17.1269 17.1269 17.5 16.6667 17.5H3.33333C2.8731 17.5 2.5 17.1269 2.5 16.6667V3.33333C2.5 2.8731 2.8731 2.5 3.33333 2.5C3.79357 2.5 4.16667 2.8731 4.16667 3.33333V15.8333Z" fill="black"/>
<path opacity="0.3" d="M8.33301 10.4167C8.33301 9.72639 7.77336 9.16675 7.08301 9.16675C6.39265 9.16675 5.83301 9.72639 5.83301 10.4167V12.9167C5.83301 13.6071 6.39265 14.1667 7.08301 14.1667C7.77336 14.1667 8.33301 13.6071 8.33301 12.9167V10.4167Z" fill="black"/>
</svg>
