<svg width="20" height="20" viewBox="0 0 20 20" fill="none" xmlns="http://www.w3.org/2000/svg">
<path fill-rule="evenodd" clip-rule="evenodd" d="M9.13574 6.25H9.20615C9.42021 6.25 9.59945 6.41221 9.62075 6.62521L9.99989 10.4167L12.7066 11.9634C12.8364 12.0376 12.9166 12.1756 12.9166 12.3251V12.5C12.9166 12.6758 12.7741 12.8182 12.5983 12.8182C12.57 12.8182 12.5419 12.8145 12.5146 12.807L8.66544 11.7573C8.47263 11.7047 8.34431 11.5226 8.35964 11.3233L8.7203 6.63471C8.737 6.41763 8.91802 6.25 9.13574 6.25Z" fill="black"/>
<path opacity="0.3" fill-rule="evenodd" clip-rule="evenodd" d="M6.15784 2.36242C7.20981 1.91448 8.36747 1.66662 9.58301 1.66662C14.4155 1.66662 18.333 5.58413 18.333 10.4166C18.333 15.2491 14.4155 19.1666 9.58301 19.1666C4.75052 19.1666 0.833008 15.2491 0.833008 10.4166C0.833008 9.5959 0.946003 8.80157 1.15729 8.04833L2.76202 8.49846C2.58861 9.11667 2.49967 9.75989 2.49967 10.4166C2.49967 14.3286 5.67099 17.5 9.58301 17.5C13.495 17.5 16.6663 14.3286 16.6663 10.4166C16.6663 6.5046 13.495 3.33329 9.58301 3.33329C8.79031 3.33329 8.01831 3.46323 7.29028 3.71201L8.28258 4.89458C8.34035 4.96343 8.37431 5.04911 8.37939 5.13884C8.39241 5.36859 8.21672 5.56539 7.98697 5.57841L3.93116 5.80825C3.89077 5.81054 3.85026 5.80693 3.81091 5.79754C3.58707 5.74415 3.4489 5.51941 3.50229 5.29557L4.44271 1.35296C4.46346 1.26596 4.51166 1.18794 4.58017 1.13045C4.75646 0.982533 5.01927 1.00553 5.16719 1.18181L6.15784 2.36242Z" fill="black"/>
</svg>
