<svg width="79" height="98" viewBox="0 0 79 98" fill="none" xmlns="http://www.w3.org/2000/svg">
<path d="M13.4806 68.634L10.4386 59.238H8.18858L5.20058 68.562L2.64458 59.238H0.376578L3.99458 72H6.20858L9.30458 62.352L12.4006 72H14.6326L18.2146 59.238H15.9826L13.4806 68.634ZM20.5814 66.654C20.6534 65.718 21.4094 64.71 22.7234 64.71C24.1634 64.71 24.8474 65.628 24.8834 66.654H20.5814ZM25.1174 68.94C24.8294 69.804 24.1814 70.47 22.9214 70.47C21.6254 70.47 20.5814 69.516 20.5274 68.184H26.9354C26.9534 68.148 26.9894 67.86 26.9894 67.518C26.9894 64.746 25.4054 62.964 22.7054 62.964C20.4914 62.964 18.4394 64.8 18.4394 67.572C18.4394 70.542 20.5454 72.27 22.9214 72.27C25.0274 72.27 26.4134 71.028 26.8814 69.498L25.1174 68.94ZM27.5801 60.318C27.5801 61.056 28.0841 61.56 28.8041 61.56C28.9841 61.56 29.1461 61.488 29.1821 61.47C29.1461 62.28 28.4801 62.982 27.7421 63.126V64.116C28.8401 64.008 30.4061 63.108 30.4061 60.768C30.4061 59.778 29.7761 59.094 28.9121 59.094C28.1381 59.094 27.5801 59.67 27.5801 60.318ZM36.9448 63.18C36.8548 63.162 36.6388 63.126 36.3868 63.126C35.2348 63.126 34.2628 63.684 33.8488 64.638V63.234H31.8148V72H33.9028V67.824C33.9028 66.186 34.6408 65.25 36.2608 65.25C36.4768 65.25 36.7108 65.268 36.9448 65.304V63.18ZM40.058 66.654C40.13 65.718 40.886 64.71 42.2 64.71C43.64 64.71 44.324 65.628 44.36 66.654H40.058ZM44.594 68.94C44.306 69.804 43.658 70.47 42.398 70.47C41.102 70.47 40.058 69.516 40.004 68.184H46.412C46.43 68.148 46.466 67.86 46.466 67.518C46.466 64.746 44.882 62.964 42.182 62.964C39.968 62.964 37.916 64.8 37.916 67.572C37.916 70.542 40.022 72.27 42.398 72.27C44.504 72.27 45.89 71.028 46.358 69.498L44.594 68.94ZM55.0142 66.942C55.0142 65.79 55.6442 64.872 56.8322 64.872C58.1462 64.872 58.6322 65.736 58.6322 66.816V72H60.7202V66.456C60.7202 64.53 59.6942 62.982 57.5522 62.982C56.5802 62.982 55.5362 63.396 54.9602 64.404V63.234H52.9262V72H55.0142V66.942ZM67.1141 70.398C65.8361 70.398 64.6661 69.426 64.6661 67.608C64.6661 65.79 65.8361 64.854 67.1141 64.854C68.4101 64.854 69.5621 65.79 69.5621 67.608C69.5621 69.444 68.4101 70.398 67.1141 70.398ZM67.1141 62.964C64.5041 62.964 62.5781 64.926 62.5781 67.608C62.5781 70.308 64.5041 72.27 67.1141 72.27C69.7421 72.27 71.6681 70.308 71.6681 67.608C71.6681 64.926 69.7421 62.964 67.1141 62.964ZM76.2792 60.552H74.3892V61.866C74.3892 62.64 73.9752 63.234 73.0392 63.234H72.5892V65.088H74.2092V69.498C74.2092 71.136 75.2172 72.108 76.8372 72.108C77.5932 72.108 77.9892 71.964 78.1152 71.91V70.182C78.0252 70.2 77.6832 70.254 77.3952 70.254C76.6212 70.254 76.2792 69.93 76.2792 69.156V65.088H78.0972V63.234H76.2792V60.552ZM5.86566 91.624C5.86566 93.01 6.99966 94.27 8.83566 94.27C10.2577 94.27 11.1217 93.55 11.5357 92.884C11.5357 93.586 11.6077 93.946 11.6257 94H13.5697C13.5517 93.91 13.4617 93.388 13.4617 92.596V88.24C13.4617 86.494 12.4357 84.964 9.73566 84.964C7.57566 84.964 6.20766 86.314 6.04566 87.826L7.95366 88.258C8.04366 87.376 8.65566 86.674 9.75366 86.674C10.9057 86.674 11.4097 87.268 11.4097 88.006C11.4097 88.312 11.2657 88.564 10.7617 88.636L8.51166 88.978C7.01766 89.194 5.86566 90.058 5.86566 91.624ZM9.23166 92.632C8.40366 92.632 7.95366 92.092 7.95366 91.498C7.95366 90.778 8.47566 90.418 9.12366 90.31L11.4097 89.968V90.364C11.4097 92.074 10.4017 92.632 9.23166 92.632ZM18.0737 88.942C18.0737 87.79 18.7037 86.872 19.8917 86.872C21.2057 86.872 21.6917 87.736 21.6917 88.816V94H23.7797V88.456C23.7797 86.53 22.7537 84.982 20.6117 84.982C19.6397 84.982 18.5957 85.396 18.0197 86.404V85.234H15.9857V94H18.0737V88.942ZM45.0065 94V81.238H42.0725L37.9865 90.976L33.8465 81.238H30.9665V94H33.0725V84.64L37.0145 94H38.8865L42.8645 84.604V94H45.0065ZM53.74 94.27C56.998 94.27 58.942 92.2 59.518 90.04L57.538 89.392C57.106 90.832 55.882 92.2 53.74 92.2C51.562 92.2 49.51 90.616 49.51 87.628C49.51 84.532 51.616 83.002 53.722 83.002C55.864 83.002 57.052 84.244 57.43 85.792L59.464 85.108C58.888 82.876 56.962 80.968 53.722 80.968C50.41 80.968 47.296 83.47 47.296 87.628C47.296 91.786 50.302 94.27 53.74 94.27ZM72.4207 94V81.238H70.2607V90.292L64.4647 81.238H61.7107V94H63.8707V84.334L70.1707 94H72.4207Z" fill="black"/>
<g clip-path="url(#clip0)">
<path d="M57.9501 8.18307L57.9335 8.16641C57.7335 7.06641 56.8501 6.21641 55.7501 6.08307L55.7335 6.06641C44.5835 4.56641 33.2835 4.56641 22.1501 6.06641V6.04974C21.0501 6.18307 20.1668 7.03307 19.9835 8.11641H19.9668C18.5501 15.9164 18.5501 23.8997 19.9668 31.7164C20.1501 32.7997 21.0335 33.6497 22.1335 33.7831L22.1168 33.7664C27.6668 34.4997 33.2835 34.8831 38.9001 34.8831L38.8835 34.8814C44.4835 34.8814 50.1001 34.4981 55.6668 33.7481V33.7314C56.7501 33.5814 57.6335 32.7314 57.8335 31.6481V31.6314C59.2335 23.8147 59.2335 15.8314 57.8168 8.01474L57.9501 8.18307ZM32.3168 25.0164V14.9514H32.3001C32.3335 13.9847 33.1501 13.2514 34.1168 13.3014C34.3668 13.3014 34.6168 13.3847 34.8501 13.5014L44.7168 18.5331L44.7001 18.5164C45.4835 18.8831 45.8168 19.8331 45.4335 20.6331C45.2668 20.9497 45.0001 21.2164 44.6835 21.3664L34.8001 26.3831V26.3664C33.9501 26.8164 32.9001 26.4997 32.4501 25.6664C32.3168 25.4331 32.2501 25.1831 32.2335 24.9164L32.3168 25.0164Z" fill="black"/>
</g>
<defs>
<clipPath id="clip0">
<rect width="40" height="40" fill="white" transform="translate(19)"/>
</clipPath>
</defs>
</svg>
