<svg width="82" height="122" viewBox="0 0 82 122" fill="none" xmlns="http://www.w3.org/2000/svg">
<g clip-path="url(#clip0)">
<path d="M56.2885 18.4599L56.2718 18.4433C57.1551 18.6099 58.0218 18.0266 58.2051 17.1266C58.2218 17.0099 58.2218 16.9099 58.2218 16.8099C58.2218 5.14326 58.2218 9.15992 58.2218 8.30992C58.2218 2.89326 49.2051 -0.0234117 40.7218 -0.0234117C32.2335 -0.0334117 23.2335 2.86659 23.2168 8.26659V8.28326V29.5333C23.2168 34.5333 31.2335 37.7166 40.0835 37.8666L40.0668 37.8499C40.9835 37.8833 41.7501 37.1499 41.7835 36.2333C41.8001 35.7666 41.6168 35.3166 41.3001 34.9999C40.9835 34.6666 40.5501 34.4999 40.1001 34.4833C31.6551 34.3499 26.4835 31.4333 26.4835 29.4833V28.1666C26.4668 27.9333 26.6668 27.7499 26.8835 27.7333C26.9501 27.7166 27.0168 27.7499 27.0835 27.7833L27.0668 27.7666C29.4668 29.0166 32.0835 29.8499 34.7835 30.2333L34.7668 30.2316C35.6501 30.3483 36.4835 29.7316 36.6168 28.8316C36.6335 28.6316 36.6335 28.4149 36.5835 28.2316V28.1816C36.4335 27.4983 35.8835 26.9983 35.2001 26.8983C29.7001 26.0149 26.4001 23.8983 26.4001 22.3149V20.9983V20.9816C26.4001 20.7483 26.5835 20.5483 26.8168 20.5483C26.8835 20.5483 26.9501 20.5649 27.0168 20.5983L27.0001 20.5816C29.7501 21.9816 32.7501 22.8816 35.8335 23.1983C36.5001 23.2649 37.1335 22.9316 37.4501 22.3316L37.4668 22.2816V22.2649C37.8835 21.4649 37.6001 20.4816 36.8168 20.0483C36.6335 19.9483 36.4335 19.8816 36.2335 19.8483C30.0835 19.0816 26.3501 16.7816 26.3501 15.0983V13.7816L26.3335 13.7649C26.3168 13.5316 26.5168 13.3316 26.7335 13.3316C26.8001 13.3149 26.8668 13.3483 26.9335 13.3816L26.9168 13.3649C31.1168 15.3983 35.7501 16.3983 40.4335 16.2816C45.1168 16.3983 49.7501 15.3983 53.9668 13.3483H53.9501C54.1501 13.2316 54.4001 13.2983 54.5168 13.4983C54.5501 13.5483 54.5668 13.6316 54.5668 13.6983V16.4149H54.5501C54.5335 17.1983 55.1001 17.8816 55.8835 18.0316L56.2885 18.4599ZM40.7551 3.33326C49.3885 3.33326 54.9218 6.28326 54.9218 8.33326C54.8885 10.3666 49.3885 13.3166 40.7551 13.3166C32.1051 13.3166 26.5885 10.3499 26.5885 8.31659C26.5885 6.26659 32.1051 3.31659 40.7551 3.31659V3.33326Z" fill="black"/>
<path d="M55.8004 20.8998C53.9337 20.5831 52.0337 21.1998 50.7003 22.5331L50.2004 23.0331H50.1837C50.017 23.1831 49.7503 23.1831 49.5837 23.0165L49.067 22.5165C46.7503 20.2165 43.0337 20.2498 40.7503 22.5498C38.4837 24.8331 38.467 28.4998 40.7337 30.7998L49.2504 39.6831L49.2337 39.6665C49.5504 39.9831 50.067 39.9998 50.4004 39.6831C50.4004 39.6665 50.417 39.6665 50.417 39.6498L58.917 30.7665H58.9004C61.1837 28.4665 61.1837 24.7498 58.9004 22.4498C58.017 21.5665 56.9003 20.9998 55.6837 20.7998L55.8004 20.8998Z" fill="black"/>
</g>
<path d="M4.14605 67.106V63.146H6.39605C7.76406 63.146 8.59206 63.92 8.59206 65.144C8.59206 66.35 7.76406 67.106 6.39605 67.106H4.14605ZM6.72006 69.014C9.16806 69.014 10.7881 67.376 10.7881 65.126C10.7881 62.894 9.16806 61.238 6.72006 61.238H1.98605V74H4.14605V69.014H6.72006ZM17.5357 65.18C17.4457 65.162 17.2297 65.126 16.9777 65.126C15.8257 65.126 14.8537 65.684 14.4397 66.638V65.234H12.4057V74H14.4937V69.824C14.4937 68.186 15.2317 67.25 16.8517 67.25C17.0677 67.25 17.3017 67.268 17.5357 67.304V65.18ZM23.0428 72.398C21.7648 72.398 20.5948 71.426 20.5948 69.608C20.5948 67.79 21.7648 66.854 23.0428 66.854C24.3388 66.854 25.4908 67.79 25.4908 69.608C25.4908 71.444 24.3388 72.398 23.0428 72.398ZM23.0428 64.964C20.4328 64.964 18.5068 66.926 18.5068 69.608C18.5068 72.308 20.4328 74.27 23.0428 74.27C25.6708 74.27 27.5968 72.308 27.5968 69.608C27.5968 66.926 25.6708 64.964 23.0428 64.964ZM32.2079 62.552H30.3179V63.866C30.3179 64.64 29.9039 65.234 28.9679 65.234H28.5179V67.088H30.1379V71.498C30.1379 73.136 31.1459 74.108 32.7659 74.108C33.5219 74.108 33.9179 73.964 34.0439 73.91V72.182C33.9539 72.2 33.6119 72.254 33.3239 72.254C32.5499 72.254 32.2079 71.93 32.2079 71.156V67.088H34.0259V65.234H32.2079V62.552ZM37.5414 68.654C37.6134 67.718 38.3694 66.71 39.6834 66.71C41.1234 66.71 41.8074 67.628 41.8434 68.654H37.5414ZM42.0774 70.94C41.7894 71.804 41.1414 72.47 39.8814 72.47C38.5854 72.47 37.5414 71.516 37.4874 70.184H43.8954C43.9134 70.148 43.9494 69.86 43.9494 69.518C43.9494 66.746 42.3654 64.964 39.6654 64.964C37.4514 64.964 35.3994 66.8 35.3994 69.572C35.3994 72.542 37.5054 74.27 39.8814 74.27C41.9874 74.27 43.3734 73.028 43.8414 71.498L42.0774 70.94ZM49.7607 66.89C51.0927 66.89 51.6867 67.754 51.8847 68.528L53.7567 67.844C53.3967 66.44 52.1007 64.964 49.7427 64.964C47.2227 64.964 45.2607 66.908 45.2607 69.608C45.2607 72.272 47.2227 74.27 49.7967 74.27C52.1007 74.27 53.4147 72.776 53.8287 71.408L51.9927 70.742C51.7947 71.408 51.1647 72.362 49.7967 72.362C48.4827 72.362 47.3487 71.372 47.3487 69.608C47.3487 67.844 48.4827 66.89 49.7607 66.89ZM58.329 62.552H56.439V63.866C56.439 64.64 56.025 65.234 55.089 65.234H54.639V67.088H56.259V71.498C56.259 73.136 57.267 74.108 58.887 74.108C59.643 74.108 60.039 73.964 60.165 73.91V72.182C60.075 72.2 59.733 72.254 59.445 72.254C58.671 72.254 58.329 71.93 58.329 71.156V67.088H60.147V65.234H58.329V62.552ZM63.6625 68.654C63.7345 67.718 64.4905 66.71 65.8045 66.71C67.2445 66.71 67.9285 67.628 67.9645 68.654H63.6625ZM68.1985 70.94C67.9105 71.804 67.2625 72.47 66.0025 72.47C64.7065 72.47 63.6625 71.516 63.6085 70.184H70.0165C70.0345 70.148 70.0705 69.86 70.0705 69.518C70.0705 66.746 68.4865 64.964 65.7865 64.964C63.5725 64.964 61.5205 66.8 61.5205 69.572C61.5205 72.542 63.6265 74.27 66.0025 74.27C68.1085 74.27 69.4945 73.028 69.9625 71.498L68.1985 70.94ZM73.4698 69.59C73.4698 67.916 74.4778 66.854 75.8458 66.854C77.2138 66.854 78.1498 67.898 78.1498 69.572C78.1498 71.246 77.1958 72.38 75.8278 72.38C74.4058 72.38 73.4698 71.264 73.4698 69.59ZM80.1658 60.968H78.1318V66.26C77.8618 65.702 77.0878 65 75.5578 65C73.0918 65 71.3818 67.07 71.3818 69.59C71.3818 72.236 73.0738 74.216 75.5938 74.216C76.8358 74.216 77.7538 73.604 78.1678 72.866C78.1678 73.226 78.2218 73.802 78.2578 74H80.2558C80.2378 73.856 80.1658 73.19 80.1658 72.398V60.968ZM9.56891 89.106V85.146H11.8189C13.1869 85.146 14.0149 85.92 14.0149 87.144C14.0149 88.35 13.1869 89.106 11.8189 89.106H9.56891ZM12.1429 91.014C14.5909 91.014 16.2109 89.376 16.2109 87.126C16.2109 84.894 14.5909 83.238 12.1429 83.238H7.40891V96H9.56891V91.014H12.1429ZM18.8822 90.654C18.9542 89.718 19.7102 88.71 21.0242 88.71C22.4642 88.71 23.1482 89.628 23.1842 90.654H18.8822ZM23.4182 92.94C23.1302 93.804 22.4822 94.47 21.2222 94.47C19.9262 94.47 18.8822 93.516 18.8282 92.184H25.2362C25.2542 92.148 25.2902 91.86 25.2902 91.518C25.2902 88.746 23.7062 86.964 21.0062 86.964C18.7922 86.964 16.7402 88.8 16.7402 91.572C16.7402 94.542 18.8462 96.27 21.2222 96.27C23.3282 96.27 24.7142 95.028 25.1822 93.498L23.4182 92.94ZM32.4155 87.18C32.3255 87.162 32.1095 87.126 31.8575 87.126C30.7055 87.126 29.7335 87.684 29.3195 88.638V87.234H27.2855V96H29.3735V91.824C29.3735 90.186 30.1115 89.25 31.7315 89.25C31.9475 89.25 32.1815 89.268 32.4155 89.304V87.18ZM33.4022 93.624C33.5102 94.614 34.4822 96.27 37.0202 96.27C39.2522 96.27 40.3322 94.794 40.3322 93.462C40.3322 92.166 39.4682 91.158 37.8122 90.798L36.4802 90.528C35.9402 90.42 35.5982 90.078 35.5982 89.61C35.5982 89.07 36.1202 88.602 36.8582 88.602C38.0282 88.602 38.4062 89.412 38.4782 89.916L40.2422 89.412C40.0982 88.548 39.3062 86.964 36.8582 86.964C35.0402 86.964 33.6362 88.26 33.6362 89.79C33.6362 90.996 34.4462 92.004 35.9942 92.346L37.2902 92.634C37.9922 92.778 38.3162 93.138 38.3162 93.606C38.3162 94.146 37.8662 94.614 37.0022 94.614C35.8862 94.614 35.2922 93.912 35.2202 93.12L33.4022 93.624ZM46.202 94.398C44.924 94.398 43.754 93.426 43.754 91.608C43.754 89.79 44.924 88.854 46.202 88.854C47.498 88.854 48.65 89.79 48.65 91.608C48.65 93.444 47.498 94.398 46.202 94.398ZM46.202 86.964C43.592 86.964 41.666 88.926 41.666 91.608C41.666 94.308 43.592 96.27 46.202 96.27C48.83 96.27 50.756 94.308 50.756 91.608C50.756 88.926 48.83 86.964 46.202 86.964ZM54.8618 90.942C54.8618 89.79 55.4918 88.872 56.6798 88.872C57.9938 88.872 58.4798 89.736 58.4798 90.816V96H60.5678V90.456C60.5678 88.53 59.5418 86.982 57.3998 86.982C56.4278 86.982 55.3838 87.396 54.8078 88.404V87.234H52.7738V96H54.8618V90.942ZM62.5698 93.624C62.5698 95.01 63.7038 96.27 65.5398 96.27C66.9618 96.27 67.8258 95.55 68.2398 94.884C68.2398 95.586 68.3118 95.946 68.3298 96H70.2738C70.2558 95.91 70.1658 95.388 70.1658 94.596V90.24C70.1658 88.494 69.1398 86.964 66.4398 86.964C64.2798 86.964 62.9118 88.314 62.7498 89.826L64.6578 90.258C64.7478 89.376 65.3598 88.674 66.4578 88.674C67.6098 88.674 68.1138 89.268 68.1138 90.006C68.1138 90.312 67.9698 90.564 67.4658 90.636L65.2158 90.978C63.7218 91.194 62.5698 92.058 62.5698 93.624ZM65.9358 94.632C65.1078 94.632 64.6578 94.092 64.6578 93.498C64.6578 92.778 65.1798 92.418 65.8278 92.31L68.1138 91.968V92.364C68.1138 94.074 67.1058 94.632 65.9358 94.632ZM74.7778 96V82.968H72.6898V96H74.7778ZM25.3189 116.02V107.218H27.6049C29.8189 107.218 31.6369 108.658 31.6369 111.646C31.6369 114.598 29.8009 116.02 27.5869 116.02H25.3189ZM27.6589 118C31.1149 118 33.8869 115.732 33.8869 111.646C33.8869 107.542 31.1509 105.238 27.6769 105.238H23.1589V118H27.6589ZM35.4291 115.624C35.4291 117.01 36.5631 118.27 38.3991 118.27C39.8211 118.27 40.6851 117.55 41.0991 116.884C41.0991 117.586 41.1711 117.946 41.1891 118H43.1331C43.1151 117.91 43.0251 117.388 43.0251 116.596V112.24C43.0251 110.494 41.9991 108.964 39.2991 108.964C37.1391 108.964 35.7711 110.314 35.6091 111.826L37.5171 112.258C37.6071 111.376 38.2191 110.674 39.3171 110.674C40.4691 110.674 40.9731 111.268 40.9731 112.006C40.9731 112.312 40.8291 112.564 40.3251 112.636L38.0751 112.978C36.5811 113.194 35.4291 114.058 35.4291 115.624ZM38.7951 116.632C37.9671 116.632 37.5171 116.092 37.5171 115.498C37.5171 114.778 38.0391 114.418 38.6871 114.31L40.9731 113.968V114.364C40.9731 116.074 39.9651 116.632 38.7951 116.632ZM48.1601 106.552H46.2701V107.866C46.2701 108.64 45.8561 109.234 44.9201 109.234H44.4701V111.088H46.0901V115.498C46.0901 117.136 47.0981 118.108 48.7181 118.108C49.4741 118.108 49.8701 117.964 49.9961 117.91V116.182C49.9061 116.2 49.5641 116.254 49.2761 116.254C48.5021 116.254 48.1601 115.93 48.1601 115.156V111.088H49.9781V109.234H48.1601V106.552ZM51.601 115.624C51.601 117.01 52.735 118.27 54.571 118.27C55.993 118.27 56.857 117.55 57.271 116.884C57.271 117.586 57.343 117.946 57.361 118H59.305C59.287 117.91 59.197 117.388 59.197 116.596V112.24C59.197 110.494 58.171 108.964 55.471 108.964C53.311 108.964 51.943 110.314 51.781 111.826L53.689 112.258C53.779 111.376 54.391 110.674 55.489 110.674C56.641 110.674 57.145 111.268 57.145 112.006C57.145 112.312 57.001 112.564 56.497 112.636L54.247 112.978C52.753 113.194 51.601 114.058 51.601 115.624ZM54.967 116.632C54.139 116.632 53.689 116.092 53.689 115.498C53.689 114.778 54.211 114.418 54.859 114.31L57.145 113.968V114.364C57.145 116.074 56.137 116.632 54.967 116.632Z" fill="black"/>
<defs>
<clipPath id="clip0">
<rect width="40" height="40" fill="white" transform="translate(22)"/>
</clipPath>
</defs>
</svg>
