<svg width="95" height="100" viewBox="0 0 95 100" fill="none" xmlns="http://www.w3.org/2000/svg">
<path d="M9.93948 64.226L7.99548 64.838C7.91148 64.346 7.66548 63.896 7.25748 63.488C6.84948 63.08 6.26148 62.876 5.49348 62.876C4.85748 62.876 4.32948 63.056 3.90948 63.416C3.50148 63.776 3.29748 64.208 3.29748 64.712C3.29748 65.588 3.79548 66.134 4.79148 66.35L6.62748 66.728C7.73148 66.944 8.58348 67.382 9.18348 68.042C9.78348 68.702 10.0835 69.488 10.0835 70.4C10.0835 71.456 9.67548 72.368 8.85948 73.136C8.05548 73.892 6.95748 74.27 5.56548 74.27C4.06548 74.27 2.89548 73.88 2.05548 73.1C1.21548 72.308 0.741484 71.39 0.633484 70.346L2.64948 69.77C2.72148 70.49 3.00948 71.096 3.51348 71.588C4.01748 72.08 4.70148 72.326 5.56548 72.326C6.30948 72.326 6.87948 72.164 7.27548 71.84C7.68348 71.504 7.88748 71.078 7.88748 70.562C7.88748 70.142 7.73748 69.782 7.43748 69.482C7.13748 69.17 6.71748 68.954 6.17748 68.834L4.37748 68.456C3.38148 68.252 2.58948 67.838 2.00148 67.214C1.42548 66.59 1.13748 65.81 1.13748 64.874C1.13748 63.806 1.56348 62.888 2.41548 62.12C3.26748 61.352 4.28748 60.968 5.47548 60.968C6.83148 60.968 7.86948 61.298 8.58948 61.958C9.30948 62.606 9.75948 63.362 9.93948 64.226ZM20.7149 64.226L18.7709 64.838C18.6869 64.346 18.4409 63.896 18.0329 63.488C17.6249 63.08 17.0369 62.876 16.2689 62.876C15.6329 62.876 15.1049 63.056 14.6849 63.416C14.2769 63.776 14.0729 64.208 14.0729 64.712C14.0729 65.588 14.5709 66.134 15.5669 66.35L17.4029 66.728C18.5069 66.944 19.3589 67.382 19.9589 68.042C20.5589 68.702 20.8589 69.488 20.8589 70.4C20.8589 71.456 20.4509 72.368 19.6349 73.136C18.8309 73.892 17.7329 74.27 16.3409 74.27C14.8409 74.27 13.6709 73.88 12.8309 73.1C11.9909 72.308 11.5169 71.39 11.4089 70.346L13.4249 69.77C13.4969 70.49 13.7849 71.096 14.2889 71.588C14.7929 72.08 15.4769 72.326 16.3409 72.326C17.0849 72.326 17.6549 72.164 18.0509 71.84C18.4589 71.504 18.6629 71.078 18.6629 70.562C18.6629 70.142 18.5129 69.782 18.2129 69.482C17.9129 69.17 17.4929 68.954 16.9529 68.834L15.1529 68.456C14.1569 68.252 13.3649 67.838 12.7769 67.214C12.2009 66.59 11.9129 65.81 11.9129 64.874C11.9129 63.806 12.3389 62.888 13.1909 62.12C14.0429 61.352 15.0629 60.968 16.2509 60.968C17.6069 60.968 18.6449 61.298 19.3649 61.958C20.0849 62.606 20.5349 63.362 20.7149 64.226ZM31.1123 74H23.1023V61.238H25.2623V71.948H31.1123V74ZM38.8655 66.71L36.7775 66.566C36.7415 66.242 36.7235 66.02 36.7235 65.9C36.7235 64.844 37.0955 63.944 37.8395 63.2C38.5955 62.444 39.6095 62.066 40.8815 62.066C42.1295 62.066 43.1255 62.42 43.8695 63.128C44.6135 63.836 44.9855 64.706 44.9855 65.738C44.9855 67.226 44.2355 68.432 42.7355 69.356L40.4675 70.76C39.8075 71.156 39.4115 71.6 39.2795 72.092H45.0575V74H36.6155C36.6395 72.956 36.8615 72.044 37.2815 71.264C37.7015 70.484 38.4035 69.788 39.3875 69.176L41.3135 67.97C42.3095 67.346 42.8075 66.614 42.8075 65.774C42.8075 65.258 42.6335 64.826 42.2855 64.478C41.9495 64.13 41.4695 63.956 40.8455 63.956C40.1855 63.956 39.6815 64.16 39.3335 64.568C38.9855 64.964 38.8115 65.48 38.8115 66.116L38.8655 66.71ZM46.2655 70.778L48.2995 70.256C48.3475 70.892 48.5875 71.414 49.0195 71.822C49.4515 72.23 49.9975 72.434 50.6575 72.434C51.2815 72.434 51.8035 72.242 52.2235 71.858C52.6555 71.462 52.8715 70.946 52.8715 70.31C52.8715 69.626 52.6555 69.098 52.2235 68.726C51.7915 68.342 51.2575 68.15 50.6215 68.15C49.8055 68.15 49.1575 68.42 48.6775 68.96L46.6435 68.222L48.0835 62.336H54.4735V64.226H49.5415L48.8215 67.178C49.3375 66.638 50.0815 66.368 51.0535 66.368C52.2415 66.368 53.2015 66.716 53.9335 67.412C54.6775 68.108 55.0495 69.056 55.0495 70.256C55.0495 71.384 54.6475 72.338 53.8435 73.118C53.0395 73.898 51.9775 74.288 50.6575 74.288C49.4335 74.288 48.4135 73.946 47.5975 73.262C46.7815 72.566 46.3375 71.738 46.2655 70.778ZM65.1444 62.642L64.5324 64.406C63.9564 64.094 63.2904 63.938 62.5344 63.938C61.4304 63.938 60.5124 64.28 59.7804 64.964C59.0604 65.636 58.6524 66.536 58.5564 67.664C59.1564 66.74 60.1464 66.278 61.5264 66.278C62.7024 66.278 63.6564 66.638 64.3884 67.358C65.1204 68.078 65.4864 69.032 65.4864 70.22C65.4864 71.408 65.0604 72.38 64.2084 73.136C63.3564 73.892 62.3064 74.27 61.0584 74.27C59.6184 74.27 58.4784 73.754 57.6384 72.722C56.8104 71.69 56.3964 70.4 56.3964 68.852C56.3964 66.776 56.9784 65.126 58.1424 63.902C59.3064 62.678 60.8124 62.066 62.6604 62.066C63.7164 62.066 64.5444 62.258 65.1444 62.642ZM58.7904 70.256C58.7904 70.904 59.0124 71.432 59.4564 71.84C59.9124 72.236 60.4464 72.434 61.0584 72.434C61.6944 72.434 62.2284 72.236 62.6604 71.84C63.1044 71.444 63.3264 70.916 63.3264 70.256C63.3264 69.596 63.1044 69.068 62.6604 68.672C62.2284 68.276 61.6944 68.078 61.0584 68.078C60.4224 68.078 59.8824 68.276 59.4384 68.672C59.0064 69.068 58.7904 69.596 58.7904 70.256ZM71.9661 69.662H66.8901V67.808H71.9661V69.662ZM76.1613 74H74.1273V60.968H76.1793V66.314C76.3953 65.942 76.7493 65.63 77.2413 65.378C77.7333 65.126 78.2973 65 78.9333 65C80.2053 65 81.1953 65.432 81.9033 66.296C82.6233 67.148 82.9833 68.24 82.9833 69.572C82.9833 70.928 82.6053 72.044 81.8493 72.92C81.1053 73.784 80.1093 74.216 78.8613 74.216C77.6133 74.216 76.7133 73.754 76.1613 72.83V74ZM80.2113 71.624C80.6553 71.12 80.8773 70.442 80.8773 69.59C80.8773 68.738 80.6613 68.072 80.2293 67.592C79.7973 67.1 79.2273 66.854 78.5193 66.854C77.8353 66.854 77.2713 67.1 76.8273 67.592C76.3833 68.072 76.1613 68.738 76.1613 69.59C76.1613 70.43 76.3833 71.102 76.8273 71.606C77.2713 72.11 77.8353 72.362 78.5193 72.362C79.2153 72.362 79.7793 72.116 80.2113 71.624ZM87.0606 74H84.9906V65.234H87.0606V74ZM85.0626 63.11C84.7986 62.846 84.6666 62.528 84.6666 62.156C84.6666 61.784 84.7986 61.466 85.0626 61.202C85.3266 60.926 85.6446 60.788 86.0166 60.788C86.4006 60.788 86.7246 60.92 86.9886 61.184C87.2526 61.448 87.3846 61.772 87.3846 62.156C87.3846 62.528 87.2526 62.846 86.9886 63.11C86.7246 63.374 86.4006 63.506 86.0166 63.506C85.6446 63.506 85.3266 63.374 85.0626 63.11ZM92.4003 62.552V65.234H94.2183V67.088H92.4003V71.156C92.4003 71.54 92.4903 71.822 92.6703 72.002C92.8503 72.17 93.1323 72.254 93.5163 72.254C93.7563 72.254 93.9963 72.23 94.2363 72.182V73.91C93.9243 74.042 93.4983 74.108 92.9583 74.108C92.1423 74.108 91.5003 73.88 91.0323 73.424C90.5643 72.956 90.3303 72.314 90.3303 71.498V67.088H88.7103V65.234H89.1603C89.6043 65.234 89.9403 65.108 90.1683 64.856C90.3963 64.604 90.5103 64.274 90.5103 63.866V62.552H92.4003ZM5.3871 90.654H9.6891C9.6651 90.102 9.4671 89.64 9.0951 89.268C8.7351 88.896 8.2131 88.71 7.5291 88.71C6.9051 88.71 6.4011 88.908 6.0171 89.304C5.6331 89.688 5.4231 90.138 5.3871 90.654ZM9.9231 92.94L11.6871 93.498C11.4351 94.302 10.9611 94.968 10.2651 95.496C9.5811 96.012 8.7351 96.27 7.7271 96.27C6.4791 96.27 5.4171 95.844 4.5411 94.992C3.6771 94.14 3.2451 93 3.2451 91.572C3.2451 90.228 3.6651 89.124 4.5051 88.26C5.3571 87.396 6.3591 86.964 7.5111 86.964C8.8551 86.964 9.9051 87.378 10.6611 88.206C11.4171 89.022 11.7951 90.126 11.7951 91.518C11.7951 91.89 11.7771 92.112 11.7411 92.184H5.3331C5.3571 92.844 5.5971 93.39 6.0531 93.822C6.5211 94.254 7.0791 94.47 7.7271 94.47C8.8551 94.47 9.5871 93.96 9.9231 92.94ZM15.8784 90.942V96H13.7904V87.234H15.8244V88.404C16.1004 87.924 16.4664 87.57 16.9224 87.342C17.3904 87.102 17.8884 86.982 18.4164 86.982C19.4484 86.982 20.2344 87.306 20.7744 87.954C21.3144 88.602 21.5844 89.436 21.5844 90.456V96H19.4964V90.816C19.4964 90.228 19.3524 89.76 19.0644 89.412C18.7764 89.052 18.3204 88.872 17.6964 88.872C17.1204 88.872 16.6704 89.07 16.3464 89.466C16.0344 89.85 15.8784 90.342 15.8784 90.942ZM27.9424 88.89C27.2704 88.89 26.7004 89.136 26.2324 89.628C25.7644 90.108 25.5304 90.768 25.5304 91.608C25.5304 92.46 25.7644 93.132 26.2324 93.624C26.7124 94.116 27.2944 94.362 27.9784 94.362C28.5904 94.362 29.0764 94.2 29.4364 93.876C29.8084 93.54 30.0544 93.162 30.1744 92.742L32.0104 93.408C31.7704 94.188 31.3024 94.86 30.6064 95.424C29.9224 95.988 29.0464 96.27 27.9784 96.27C26.6944 96.27 25.6144 95.826 24.7384 94.938C23.8744 94.05 23.4424 92.94 23.4424 91.608C23.4424 90.264 23.8684 89.154 24.7204 88.278C25.5844 87.402 26.6524 86.964 27.9244 86.964C29.0164 86.964 29.9044 87.246 30.5884 87.81C31.2844 88.374 31.7344 89.052 31.9384 89.844L30.0664 90.528C29.9464 90.072 29.7124 89.688 29.3644 89.376C29.0284 89.052 28.5544 88.89 27.9424 88.89ZM38.9946 87.18V89.304C38.7546 89.268 38.5266 89.25 38.3106 89.25C36.7386 89.25 35.9526 90.108 35.9526 91.824V96H33.8646V87.234H35.8986V88.638C36.1026 88.17 36.4326 87.804 36.8886 87.54C37.3446 87.264 37.8606 87.126 38.4366 87.126C38.6286 87.126 38.8146 87.144 38.9946 87.18ZM43.7181 99.546H41.4861L43.5921 94.956L39.8481 87.234H42.2061L44.7261 92.778L47.0841 87.234H49.2981L43.7181 99.546ZM52.8975 99.42H50.8275V87.234H52.8435V88.422C53.0715 88.026 53.4315 87.696 53.9235 87.432C54.4155 87.168 54.9855 87.036 55.6335 87.036C56.8935 87.036 57.8835 87.468 58.6035 88.332C59.3235 89.184 59.6835 90.276 59.6835 91.608C59.6835 92.94 59.3055 94.044 58.5495 94.92C57.7935 95.784 56.7975 96.216 55.5615 96.216C54.9615 96.216 54.4275 96.102 53.9595 95.874C53.4915 95.646 53.1375 95.358 52.8975 95.01V99.42ZM57.5955 91.608C57.5955 90.792 57.3795 90.138 56.9475 89.646C56.5155 89.142 55.9455 88.89 55.2375 88.89C54.5415 88.89 53.9715 89.142 53.5275 89.646C53.0955 90.138 52.8795 90.792 52.8795 91.608C52.8795 92.436 53.0955 93.102 53.5275 93.606C53.9715 94.11 54.5415 94.362 55.2375 94.362C55.9335 94.362 56.4975 94.11 56.9295 93.606C57.3735 93.102 57.5955 92.436 57.5955 91.608ZM64.2841 84.552V87.234H66.1021V89.088H64.2841V93.156C64.2841 93.54 64.3741 93.822 64.5541 94.002C64.7341 94.17 65.0161 94.254 65.4001 94.254C65.6401 94.254 65.8801 94.23 66.1201 94.182V95.91C65.8081 96.042 65.3821 96.108 64.8421 96.108C64.0261 96.108 63.3841 95.88 62.9161 95.424C62.4481 94.956 62.2141 94.314 62.2141 93.498V89.088H60.5941V87.234H61.0441C61.4881 87.234 61.8241 87.108 62.0521 86.856C62.2801 86.604 62.3941 86.274 62.3941 85.866V84.552H64.2841ZM70.3175 96H68.2475V87.234H70.3175V96ZM68.3195 85.11C68.0555 84.846 67.9235 84.528 67.9235 84.156C67.9235 83.784 68.0555 83.466 68.3195 83.202C68.5835 82.926 68.9015 82.788 69.2735 82.788C69.6575 82.788 69.9815 82.92 70.2455 83.184C70.5095 83.448 70.6415 83.772 70.6415 84.156C70.6415 84.528 70.5095 84.846 70.2455 85.11C69.9815 85.374 69.6575 85.506 69.2735 85.506C68.9015 85.506 68.5835 85.374 68.3195 85.11ZM75.1171 93.66C75.5971 94.152 76.1791 94.398 76.8631 94.398C77.5471 94.398 78.1231 94.152 78.5911 93.66C79.0711 93.168 79.3111 92.484 79.3111 91.608C79.3111 90.744 79.0711 90.072 78.5911 89.592C78.1231 89.1 77.5471 88.854 76.8631 88.854C76.1791 88.854 75.5971 89.1 75.1171 89.592C74.6491 90.072 74.4151 90.744 74.4151 91.608C74.4151 92.472 74.6491 93.156 75.1171 93.66ZM76.8631 86.964C78.1831 86.964 79.2691 87.402 80.1211 88.278C80.9851 89.154 81.4171 90.264 81.4171 91.608C81.4171 92.952 80.9851 94.068 80.1211 94.956C79.2691 95.832 78.1831 96.27 76.8631 96.27C75.5551 96.27 74.4691 95.832 73.6051 94.956C72.7531 94.068 72.3271 92.952 72.3271 91.608C72.3271 90.264 72.7531 89.154 73.6051 88.278C74.4691 87.402 75.5551 86.964 76.8631 86.964ZM85.523 90.942V96H83.435V87.234H85.469V88.404C85.745 87.924 86.111 87.57 86.567 87.342C87.035 87.102 87.533 86.982 88.061 86.982C89.093 86.982 89.879 87.306 90.419 87.954C90.959 88.602 91.229 89.436 91.229 90.456V96H89.141V90.816C89.141 90.228 88.997 89.76 88.709 89.412C88.421 89.052 87.965 88.872 87.341 88.872C86.765 88.872 86.315 89.07 85.991 89.466C85.679 89.85 85.523 90.342 85.523 90.942Z" fill="black"/>
<g clip-path="url(#clip0)">
<path d="M50.9168 14.1667C50.9168 12.55 49.6002 11.25 48.0002 11.25C46.3835 11.25 45.0835 12.55 45.0835 14.1667V16.6667C45.0835 16.8833 45.2668 17.0667 45.5002 17.0667H50.5002H50.4835C50.7002 17.0667 50.9002 16.8667 50.9002 16.65L50.9168 14.1667Z" fill="black"/>
<path d="M62.0787 5.78346C58.3287 2.05013 53.262 -0.0332031 47.9953 -0.0165365H47.8953V-0.0332031C36.8337 -0.0165365 27.9003 8.9668 27.917 20.0001C27.9337 31.0335 36.917 39.9668 47.9503 39.9501H48.0337V39.9335C59.067 39.8668 67.9837 30.8835 67.9337 19.8335C67.9003 14.5168 65.767 9.45013 62.0003 5.7168L62.0787 5.78346ZM40.5003 27.9051V18.7385C40.4837 17.8051 41.2337 17.0551 42.1503 17.0551H42.567V14.1335C42.5503 11.1335 44.9837 8.70013 47.967 8.70013C50.9503 8.68346 53.3837 11.1168 53.3837 14.1001V17.0168H53.8003H53.7837C54.7003 17.0001 55.4503 17.7501 55.4503 18.6668V27.8335C55.4503 28.7501 54.7003 29.5001 53.7837 29.5001H42.117L42.1003 29.4985C41.167 29.4818 40.4337 28.7485 40.4337 27.8318L40.5003 27.9051Z" fill="black"/>
<path d="M48.0003 22.0835C47.4478 22.0835 46.9179 22.303 46.5272 22.6937C46.1365 23.0844 45.917 23.6143 45.917 24.1668C45.917 24.7194 46.1365 25.2493 46.5272 25.64C46.9179 26.0307 47.4478 26.2502 48.0003 26.2502C48.5529 26.2502 49.0828 26.0307 49.4735 25.64C49.8642 25.2493 50.0837 24.7194 50.0837 24.1668C50.0837 23.6143 49.8642 23.0844 49.4735 22.6937C49.0828 22.303 48.5529 22.0835 48.0003 22.0835V22.0835Z" fill="black"/>
</g>
<defs>
<clipPath id="clip0">
<rect width="40" height="40" fill="white" transform="translate(28)"/>
</clipPath>
</defs>
</svg>
